<svg width="48" height="48" viewBox="0 0 48 48" fill="none" xmlns="http://www.w3.org/2000/svg">
<rect width="47.8537" height="47.8537" rx="21.7517" fill="white"/>
<path d="M23.9256 10.5801L5.42578 17.5174L23.9256 26.767L32.7369 22.3615L24.4709 19.8344C24.3007 19.916 24.1144 19.9586 23.9256 19.959C23.5894 19.959 23.267 19.8255 23.0293 19.5878C22.7916 19.3501 22.658 19.0277 22.658 18.6915C22.658 18.3553 22.7614 18.0631 23.0293 17.7952C23.2972 17.5273 23.4497 17.424 23.9256 17.424C24.4015 17.424 24.971 17.8995 25.1845 18.5572L25.1852 18.5616L27.3523 19.2243L39.6911 23.0205V23.9827C39.5204 24.0988 39.3807 24.2548 39.2841 24.4372C39.1874 24.6196 39.1368 24.8228 39.1365 25.0292C39.1368 25.2404 39.1897 25.4481 39.2906 25.6336C39.3915 25.819 39.5372 25.9764 39.7143 26.0913C39.1373 28.2718 39.1365 33.2192 39.1365 35.1694C40.4041 35.9929 40.4041 36.023 41.6717 35.1694C41.6717 33.2195 41.6711 28.273 41.0942 26.092C41.2714 25.977 41.417 25.8195 41.5179 25.6339C41.6187 25.4483 41.6716 25.2404 41.6717 25.0291C41.6717 24.8225 41.6211 24.619 41.5245 24.4364C41.4278 24.2538 41.288 24.0975 41.1171 23.9813V21.9675L36.4173 20.5215L42.4254 17.5174L23.9256 10.5801Z" fill="#2683FB"/>
<path d="M23.8578 29.0832L12.8578 23.7598L11.7578 30.3117C11.7578 30.3117 15.4703 31.1307 18.2203 32.9052C20.5619 34.4162 23.8578 37.2732 23.8578 37.2732C23.8578 37.2732 26.8829 34.2645 29.2203 32.9052C31.6986 31.464 36.0953 30.3117 36.0953 30.3117L34.8578 23.7598L23.8578 29.0832Z" fill="#4CAF50"/>
<path d="M17.6758 29.4863C17.6758 29.4863 20.3 30.4372 21.7555 31.5338C22.6732 32.2253 23.9313 33.5813 23.9313 33.5813C23.9313 33.5813 25.0103 32.2181 25.8351 31.5338C27.2865 30.3299 30.0508 29.4863 30.0508 29.4863" stroke="#FFBA00" stroke-width="1.38959" stroke-linecap="round"/>
</svg>
