<svg width="38" height="28" viewBox="0 0 38 28" fill="none" xmlns="http://www.w3.org/2000/svg">
<path d="M18.8589 0L0 7.07202L18.8589 16.5011L27.8412 12.0102L19.4148 9.43396C19.2413 9.51717 19.0514 9.56057 18.8589 9.56099C18.5162 9.56099 18.1875 9.42486 17.9452 9.18254C17.7029 8.94021 17.5667 8.61155 17.5667 8.26886C17.5667 7.92616 17.6721 7.62827 17.9452 7.35518C18.2183 7.08208 18.3737 6.97672 18.8589 6.97672C19.3441 6.97672 19.9246 7.46155 20.1423 8.13197L20.1429 8.13649L22.3521 8.81204L34.9304 12.6819V13.6628C34.7565 13.7811 34.614 13.9402 34.5155 14.1261C34.417 14.312 34.3653 14.5192 34.3651 14.7296C34.3653 14.9448 34.4193 15.1566 34.5222 15.3457C34.625 15.5348 34.7735 15.6951 34.9541 15.8123C34.3659 18.0351 34.3651 23.0786 34.3651 25.0666C35.6573 25.9061 35.6573 25.9368 36.9495 25.0666C36.9495 23.0788 36.9488 18.0363 36.3607 15.813C36.5414 15.6958 36.6898 15.5352 36.7927 15.346C36.8955 15.1568 36.9494 14.9449 36.9495 14.7295C36.9494 14.5189 36.8979 14.3115 36.7994 14.1253C36.7008 13.9391 36.5583 13.7798 36.3841 13.6613V11.6085L31.593 10.1344L37.7178 7.07202L18.8589 0Z" fill="#2683FB"/>
<path d="M18.7885 18.8604L7.57496 13.4336L6.45361 20.1128C6.45361 20.1128 10.2382 20.9476 13.0416 22.7566C15.4286 24.2969 18.7885 27.2094 18.7885 27.2094C18.7885 27.2094 21.8723 24.1423 24.2551 22.7566C26.7814 21.2874 31.2635 20.1128 31.2635 20.1128L30.002 13.4336L18.7885 18.8604Z" fill="#4CAF50"/>
<path d="M12.4863 19.2734C12.4863 19.2734 15.1615 20.2427 16.6452 21.3607C17.5807 22.0656 18.8632 23.4479 18.8632 23.4479C18.8632 23.4479 19.9632 22.0582 20.804 21.3607C22.2836 20.1334 25.1015 19.2734 25.1015 19.2734" stroke="#FFBA00" stroke-width="1.41656" stroke-linecap="round"/>
</svg>
