<svg width="44" height="44" viewBox="0 0 44 44" fill="none" xmlns="http://www.w3.org/2000/svg">
<ellipse cx="21.6939" cy="2.31447" rx="2.44439" ry="2.31447" fill="#E74235"/>
<path d="M26.5823 8.68069C26.5823 10.5981 24.5462 10.9952 21.8462 10.9952C19.1462 10.9952 16.8047 10.5981 16.8047 8.68069C16.8047 6.76332 18.9935 5.20898 21.6935 5.20898C24.3935 5.20898 26.5823 6.76332 26.5823 8.68069Z" fill="#E74235"/>
<ellipse cx="4.88873" cy="26.0391" rx="2.44439" ry="2.31447" fill="#FFBA00"/>
<path d="M9.77757 32.4053C9.77757 34.3227 7.74156 34.7198 5.04156 34.7198C2.34156 34.7198 0 34.3227 0 32.4053C0 30.4879 2.18878 28.9336 4.88878 28.9336C7.58879 28.9336 9.77757 30.4879 9.77757 32.4053Z" fill="#FFBA00"/>
<ellipse cx="39.1114" cy="26.0391" rx="2.44439" ry="2.31447" fill="#4CAF50"/>
<path d="M43.9997 32.4053C43.9997 34.3227 41.9637 34.7198 39.2637 34.7198C36.5637 34.7198 34.2222 34.3227 34.2222 32.4053C34.2222 30.4879 36.411 28.9336 39.111 28.9336C41.811 28.9336 43.9997 30.4879 43.9997 32.4053Z" fill="#4CAF50"/>
<path d="M3.739 19.5707C3.78201 20.2389 4.35936 20.7515 5.02856 20.7157C5.69775 20.6799 6.20538 20.1092 6.16237 19.441L4.95068 19.5059L3.739 19.5707ZM7.057 13.4368L6.13198 12.6422L7.057 13.4368ZM4.95068 19.5059C6.16237 19.441 6.1624 19.4414 6.16242 19.4418C6.16243 19.442 6.16246 19.4424 6.16247 19.4426C6.1625 19.4431 6.16253 19.4435 6.16255 19.4439C6.1626 19.4447 6.16263 19.4452 6.16265 19.4456C6.1627 19.4463 6.16269 19.4463 6.16265 19.4455C6.16256 19.4439 6.16233 19.4392 6.16202 19.4316C6.16141 19.4163 6.16051 19.3893 6.15997 19.3515C6.15889 19.2759 6.15925 19.1576 6.1661 19.0042C6.17983 18.6966 6.2194 18.2535 6.32344 17.7339C6.53271 16.6888 6.99285 15.3817 7.98203 14.2314L7.057 13.4368L6.13198 12.6422C4.79808 14.1935 4.20506 15.9209 3.94194 17.2349C3.80978 17.8949 3.75835 18.4625 3.74013 18.8707C3.731 19.0753 3.73015 19.2412 3.73185 19.3603C3.7327 19.4198 3.73419 19.4678 3.73561 19.5032C3.73633 19.5209 3.73702 19.5354 3.73762 19.5467C3.73791 19.5524 3.73818 19.5572 3.73842 19.5612C3.73853 19.5632 3.73864 19.565 3.73874 19.5666C3.73879 19.5674 3.73883 19.5681 3.73888 19.5688C3.7389 19.5691 3.73893 19.5696 3.73894 19.5698C3.73897 19.5703 3.739 19.5707 4.95068 19.5059ZM7.057 13.4368L7.98203 14.2314C8.43553 13.704 9.49046 12.8785 10.5436 12.1238C11.0485 11.762 11.5203 11.4393 11.8662 11.2068C12.0389 11.0907 12.1796 10.9975 12.2767 10.9337C12.3252 10.9018 12.3628 10.8772 12.3879 10.8608C12.4005 10.8526 12.4099 10.8465 12.4161 10.8425C12.4192 10.8405 12.4214 10.839 12.4229 10.8381C12.4236 10.8376 12.4241 10.8373 12.4244 10.8371C12.4245 10.837 12.4246 10.837 12.4246 10.837C12.4246 10.837 12.4246 10.837 12.4246 10.837C12.4246 10.837 12.4246 10.837 11.7568 9.81809C11.089 8.79917 11.089 8.79922 11.0889 8.79927C11.0888 8.7993 11.0887 8.79937 11.0886 8.79943C11.0885 8.79954 11.0882 8.7997 11.0879 8.79989C11.0873 8.80027 11.0865 8.80079 11.0855 8.80144C11.0835 8.80276 11.0806 8.80463 11.0769 8.80704C11.0695 8.81186 11.0587 8.81885 11.0448 8.82791C11.017 8.84602 10.9767 8.8724 10.9252 8.90625C10.8223 8.97392 10.6749 9.07153 10.4949 9.19256C10.1352 9.43429 9.64285 9.77109 9.11332 10.1505C8.09761 10.8784 6.80266 11.8623 6.13198 12.6422L7.057 13.4368Z" fill="#2683FB"/>
<path d="M7.88438 8.49345L12.8159 9.3978L11.523 13.9487" stroke="#2683FB" stroke-width="2.42575" stroke-linecap="round"/>
<path d="M31.6055 9.28411C30.9759 9.05934 30.2675 9.38389 30.0231 10.009C29.7788 10.6342 30.0911 11.3231 30.7206 11.5479L31.1631 10.416L31.6055 9.28411ZM36.8359 14.8433L37.9415 14.3024L36.8359 14.8433ZM31.1631 10.416C30.7206 11.5479 30.7204 11.5478 30.7201 11.5477C30.7201 11.5477 30.7198 11.5476 30.7197 11.5476C30.7195 11.5475 30.7193 11.5474 30.7192 11.5474C30.719 11.5473 30.719 11.5473 30.7192 11.5474C30.7198 11.5476 30.7213 11.5482 30.7238 11.5491C30.7288 11.5509 30.7377 11.5542 30.7503 11.5589C30.7754 11.5683 30.815 11.5835 30.8676 11.6043C30.9728 11.646 31.129 11.7103 31.3228 11.7967C31.7116 11.9701 32.244 12.2296 32.8148 12.5714C33.9929 13.2769 35.1731 14.2382 35.7302 15.3842L36.8359 14.8433L37.9415 14.3024C37.0856 12.5419 35.4293 11.2895 34.1244 10.508C33.4535 10.1063 32.8327 9.80394 32.3787 9.60143C32.151 9.49986 31.9634 9.42258 31.8302 9.36976C31.7635 9.34333 31.7103 9.32296 31.6723 9.30869C31.6533 9.30156 31.6381 9.29594 31.6269 9.29184C31.6213 9.28979 31.6167 9.28813 31.6131 9.28684C31.6113 9.28619 31.6098 9.28564 31.6085 9.28519C31.6079 9.28496 31.6073 9.28476 31.6068 9.28458C31.6066 9.28449 31.6063 9.28437 31.6061 9.28433C31.6058 9.28422 31.6055 9.28411 31.1631 10.416ZM36.8359 14.8433L35.7302 15.3842C36.0006 15.9403 36.3064 17.1148 36.556 18.2761C36.6753 18.8308 36.774 19.3442 36.8429 19.7192C36.8773 19.9064 36.9042 20.0585 36.9223 20.1632C36.9314 20.2155 36.9383 20.2559 36.9429 20.2829C36.9452 20.2965 36.9469 20.3066 36.948 20.3132C36.9485 20.3165 36.949 20.3189 36.9492 20.3204C36.9493 20.3212 36.9494 20.3217 36.9495 20.322C36.9495 20.3222 36.9495 20.3222 36.9495 20.3223C36.9495 20.3223 36.9495 20.3223 36.9495 20.3223C36.9495 20.3222 36.9495 20.3222 38.1566 20.1002C39.3637 19.8781 39.3637 19.8781 39.3636 19.878C39.3636 19.8779 39.3636 19.8778 39.3636 19.8777C39.3636 19.8775 39.3635 19.8772 39.3635 19.8769C39.3634 19.8763 39.3632 19.8754 39.363 19.8743C39.3627 19.8721 39.3621 19.869 39.3615 19.8649C39.3601 19.8569 39.3582 19.8453 39.3556 19.8302C39.3505 19.8002 39.3431 19.7565 39.3334 19.7008C39.3141 19.5894 39.2859 19.4297 39.2499 19.234C39.178 18.8431 39.0748 18.3059 38.9493 17.7223C38.7095 16.6067 38.355 15.1528 37.9415 14.3024L36.8359 14.8433Z" fill="#2683FB"/>
<path d="M41.2363 16.6527L38.2738 20.3819L33.6558 17.2269" stroke="#2683FB" stroke-width="2.42575" stroke-linecap="round"/>
<path d="M29.4763 37.5638C29.9449 37.0941 29.9186 36.3453 29.4175 35.8912C28.9165 35.437 28.1304 35.4496 27.6618 35.9192L28.5691 36.7415L29.4763 37.5638ZM20.1665 38.9113L20.0899 40.0905L20.1665 38.9113ZM28.5691 36.7415C27.6618 35.9192 27.6623 35.9187 27.6628 35.9183C27.6629 35.9181 27.6634 35.9177 27.6637 35.9174C27.6642 35.9168 27.6648 35.9163 27.6653 35.9158C27.6663 35.9148 27.6671 35.9139 27.6678 35.9132C27.6692 35.9118 27.67 35.9111 27.6702 35.9109C27.6706 35.9105 27.6686 35.9125 27.6642 35.9166C27.6553 35.9248 27.6367 35.9417 27.6083 35.966C27.5514 36.0145 27.4555 36.0923 27.3194 36.1889C27.0472 36.3822 26.6151 36.6503 26.014 36.9112C24.8193 37.4296 22.9268 37.9325 20.243 37.732L20.1665 38.9113L20.0899 40.0905C23.2111 40.3237 25.5199 39.7417 27.0753 39.0668C27.8492 38.731 28.4293 38.3754 28.8256 38.094C29.0237 37.9534 29.1761 37.8311 29.284 37.739C29.3379 37.6929 29.3808 37.6543 29.4128 37.6246C29.4288 37.6098 29.4421 37.5972 29.4526 37.587C29.4579 37.5819 29.4626 37.5774 29.4665 37.5735C29.4685 37.5716 29.4703 37.5698 29.4719 37.5681C29.4727 37.5673 29.4735 37.5666 29.4742 37.5658C29.4746 37.5655 29.4751 37.5649 29.4753 37.5648C29.4758 37.5643 29.4763 37.5638 28.5691 36.7415ZM20.1665 38.9113L20.243 37.732C19.9562 37.7106 19.4965 37.6102 18.9059 37.4329C18.3353 37.2615 17.7138 37.0405 17.1306 36.8179C16.5497 36.5961 16.0194 36.3775 15.6338 36.2141C15.4414 36.1325 15.2859 36.0651 15.1792 36.0184C15.1259 35.995 15.0848 35.9769 15.0575 35.9647C15.0438 35.9587 15.0336 35.9541 15.027 35.9512C15.0237 35.9497 15.0213 35.9486 15.0199 35.948C15.0191 35.9476 15.0186 35.9474 15.0184 35.9473C15.0182 35.9472 15.0182 35.9472 15.0182 35.9472C15.0181 35.9472 15.0182 35.9472 15.0182 35.9472C15.0182 35.9472 15.0183 35.9473 14.5035 37.0154C13.9887 38.0836 13.9888 38.0837 13.9889 38.0837C13.989 38.0837 13.9891 38.0838 13.9892 38.0838C13.9895 38.0839 13.9898 38.0841 13.9901 38.0842C13.9908 38.0845 13.9917 38.0849 13.9929 38.0855C13.9952 38.0865 13.9985 38.088 14.0027 38.0898C14.0111 38.0936 14.0231 38.099 14.0387 38.1059C14.0697 38.1197 14.1148 38.1396 14.1723 38.1648C14.2873 38.2152 14.4524 38.2867 14.6555 38.3728C15.0609 38.5447 15.6214 38.7758 16.2395 39.0117C16.8555 39.2469 17.5414 39.4918 18.195 39.6881C18.8288 39.8783 19.5102 40.0472 20.0899 40.0905L20.1665 38.9113Z" fill="#2683FB"/>
<path d="M16.3732 41.917L14.112 36.8046L19.4054 35.0266" stroke="#2683FB" stroke-width="2.42575" stroke-linecap="round"/>
<path d="M11.97 18.4016C12.0111 18.2452 12.1638 18.1387 12.3337 18.1479L13.3951 18.2055C13.6164 18.2175 13.7717 18.4171 13.7182 18.6208L12.0678 24.9069C12.0268 25.0632 11.874 25.1698 11.7042 25.1606L10.6428 25.103C10.4215 25.0909 10.2662 24.8914 10.3197 24.6877L11.97 18.4016Z" fill="#2683FB"/>
<path d="M29.356 18.6662L30.967 25.0726C31.008 25.2358 31.1701 25.3451 31.3464 25.3284L32.416 25.2271C32.6252 25.2073 32.7701 25.02 32.7271 24.8251L31.2861 18.3066C31.2468 18.1289 31.0652 18.0131 30.8765 18.0456L29.6369 18.259C29.4373 18.2934 29.309 18.4793 29.356 18.6662Z" fill="#2683FB"/>
<path d="M19.5395 30.3827C19.5395 30.3827 19.9911 30.6684 20.2472 30.5502C20.5638 30.404 20.4241 29.7127 20.4241 29.7127L18.78 28.156C18.5831 27.9696 18.4386 27.7319 18.4382 27.4682C18.438 27.2425 18.4804 26.9831 18.655 26.8651C18.8899 26.7062 19.303 26.8447 19.5386 26.9469C19.659 26.9992 19.7628 27.0787 19.8541 27.1694C19.8541 27.1694 19.8541 27.1694 19.8541 27.1694L23.2546 30.5502C23.2546 30.5502 23.7668 30.7352 23.9623 30.5502C24.1577 30.3652 23.9623 29.8802 23.9623 29.8802L20.6202 26.5575C20.4907 26.4288 20.3862 26.2778 20.3435 26.1047C20.2851 25.8676 20.2442 25.5278 20.4241 25.3575C20.5895 25.2009 20.9063 25.2211 21.1509 25.2684C21.3749 25.3117 21.5646 25.4422 21.716 25.6043L25.5544 29.7127C25.5544 29.7127 26.0667 29.8977 26.2621 29.7127C26.4575 29.5277 26.2621 29.0427 26.2621 29.0427L22.2014 24.8774C22.0791 24.7519 21.979 24.6063 21.9413 24.4394C21.8972 24.2444 21.8746 23.9841 22.0163 23.85C22.1412 23.7317 22.3697 23.7344 22.5631 23.7653C22.7897 23.8014 22.9801 23.9353 23.1319 24.0987L26.7928 28.0376C26.7928 28.0376 27.4331 28.2689 27.6773 28.0376C27.9216 27.8064 27.6773 27.2001 27.6773 27.2001L23.2743 22.7223C23.0326 22.4765 22.7093 22.3165 22.3581 22.269C21.9159 22.2092 21.468 22.3327 21.1289 22.6079L20.3408 23.2475C19.6095 23.841 18.636 24.0931 17.6875 23.9347L16.9136 23.8053C16.4484 23.7276 16.045 23.4554 15.8156 23.0644C15.5011 22.5283 15.5671 21.8643 15.9817 21.3932L17.4637 19.7093C17.6558 19.4911 17.4919 19.1598 17.1919 19.1598H15.0458C14.8804 19.1598 14.7371 19.2683 14.7007 19.421L13.6491 23.8303C13.5713 24.1567 13.6702 24.4984 13.9128 24.7417L19.5395 30.3827Z" fill="#2683FB"/>
<path d="M22.1932 17.8197C21.761 17.881 21.5353 17.9963 21.1317 18.1548C19.3999 18.8347 17.7232 20.9972 17.1206 21.837C16.9707 22.0458 16.9585 22.3125 17.0778 22.5383C17.1748 22.7221 17.3837 22.8279 17.599 22.8024L18.1989 22.7314C18.498 22.696 18.7826 22.5888 19.0256 22.4201L20.8416 21.1591C21.145 20.9485 21.5115 20.8349 21.8878 20.8349H22.7937C23.1922 20.8349 23.5643 21.0234 23.7853 21.3374L28.5619 26.0276L29.6234 25.3575L28.449 20.2743C28.412 20.1145 28.2592 20.0029 28.0864 20.006C27.565 20.0156 26.4735 20.0103 25.7313 19.8298C24.1706 19.4504 23.7868 17.594 22.1932 17.8197Z" fill="#2683FB"/>
</svg>
