<svg width="48" height="48" viewBox="0 0 48 48" fill="none" xmlns="http://www.w3.org/2000/svg">
<rect width="47.8537" height="47.8537" rx="21.7517" fill="white"/>
<ellipse cx="23.6264" cy="4.6161" rx="2.39785" ry="2.2704" fill="#E74235"/>
<path d="M28.4234 10.8607C28.4234 12.7415 26.4262 13.1311 23.7776 13.1311C21.129 13.1311 18.832 12.7415 18.832 10.8607C18.832 8.97982 20.9791 7.45508 23.6277 7.45508C26.2763 7.45508 28.4234 8.97982 28.4234 10.8607Z" fill="#E74235"/>
<ellipse cx="7.14199" cy="27.8895" rx="2.39785" ry="2.2704" fill="#FFBA00"/>
<path d="M11.9371 34.1341C11.9371 36.015 9.93986 36.4045 7.29127 36.4045C4.64268 36.4045 2.3457 36.015 2.3457 34.1341C2.3457 32.2533 4.49281 30.7285 7.1414 30.7285C9.78999 30.7285 11.9371 32.2533 11.9371 34.1341Z" fill="#FFBA00"/>
<ellipse cx="40.7143" cy="27.8895" rx="2.39785" ry="2.2704" fill="#4CAF50"/>
<path d="M45.5074 34.1341C45.5074 36.015 43.5102 36.4045 40.8616 36.4045C38.213 36.4045 35.916 36.015 35.916 34.1341C35.916 32.2533 38.0631 30.7285 40.7117 30.7285C43.3603 30.7285 45.5074 32.2533 45.5074 34.1341Z" fill="#4CAF50"/>
<path d="M6.01646 21.5441C6.05865 22.1995 6.62502 22.7024 7.28147 22.6673C7.93792 22.6321 8.43588 22.0723 8.39369 21.4169L7.20508 21.4805L6.01646 21.5441ZM9.27129 15.527L8.36388 14.7475L9.27129 15.527ZM7.20508 21.4805C8.39369 21.4169 8.39372 21.4173 8.39374 21.4177C8.39375 21.4178 8.39378 21.4182 8.39379 21.4184C8.39382 21.4189 8.39385 21.4193 8.39387 21.4197C8.39392 21.4204 8.39395 21.421 8.39397 21.4214C8.39401 21.4221 8.39401 21.422 8.39397 21.4213C8.39388 21.4197 8.39365 21.4151 8.39335 21.4076C8.39275 21.3926 8.39187 21.3661 8.39134 21.3291C8.39028 21.2549 8.39063 21.1388 8.39735 20.9884C8.41082 20.6866 8.44964 20.2519 8.5517 19.7423C8.75698 18.7171 9.20836 17.4349 10.1787 16.3064L9.27129 15.527L8.36388 14.7475C7.05538 16.2692 6.47365 17.9637 6.21554 19.2528C6.0859 19.9002 6.03545 20.457 6.01757 20.8574C6.00862 21.0581 6.00778 21.2208 6.00945 21.3376C6.01028 21.3961 6.01174 21.4432 6.01314 21.4779C6.01384 21.4952 6.01453 21.5095 6.01511 21.5206C6.0154 21.5261 6.01566 21.5308 6.01589 21.5348C6.01601 21.5367 6.01612 21.5385 6.01621 21.54C6.01626 21.5408 6.0163 21.5415 6.01635 21.5422C6.01637 21.5426 6.0164 21.543 6.01641 21.5432C6.01644 21.5436 6.01646 21.5441 7.20508 21.4805ZM9.27129 15.527L10.1787 16.3064C10.6236 15.7891 11.6584 14.9793 12.6915 14.239C13.1868 13.8841 13.6496 13.5675 13.9889 13.3394C14.1583 13.2255 14.2964 13.1341 14.3916 13.0715C14.4392 13.0402 14.476 13.0161 14.5007 13C14.513 12.992 14.5223 12.986 14.5284 12.982C14.5314 12.9801 14.5336 12.9786 14.535 12.9777C14.5357 12.9773 14.5362 12.977 14.5364 12.9768C14.5366 12.9767 14.5367 12.9767 14.5367 12.9766C14.5367 12.9766 14.5367 12.9766 14.5367 12.9766C14.5367 12.9766 14.5366 12.9767 13.8816 11.9772C13.2265 10.9776 13.2265 10.9777 13.2264 10.9777C13.2263 10.9778 13.2263 10.9778 13.2262 10.9779C13.226 10.978 13.2257 10.9782 13.2255 10.9783C13.2249 10.9787 13.2241 10.9792 13.2231 10.9799C13.2211 10.9812 13.2183 10.983 13.2146 10.9854C13.2074 10.9901 13.1968 10.9969 13.1832 11.0058C13.1559 11.0236 13.1163 11.0495 13.0658 11.0827C12.9649 11.1491 12.8203 11.2448 12.6437 11.3635C12.2909 11.6007 11.8079 11.9311 11.2885 12.3033C10.2921 13.0173 9.02179 13.9824 8.36388 14.7475L9.27129 15.527Z" fill="#2683FB"/>
<path d="M10.081 10.679L14.9186 11.5661L13.6504 16.0303" stroke="#2683FB" stroke-width="2.37957" stroke-linecap="round"/>
<path d="M33.3481 11.4541C32.7305 11.2336 32.0355 11.552 31.7958 12.1652C31.5561 12.7784 31.8624 13.4543 32.48 13.6748L32.9141 12.5645L33.3481 11.4541ZM38.4788 16.9074L39.5634 16.3768L38.4788 16.9074ZM32.9141 12.5645C32.48 13.6748 32.4798 13.6747 32.4795 13.6746C32.4795 13.6746 32.4793 13.6745 32.4791 13.6745C32.4789 13.6744 32.4787 13.6743 32.4786 13.6743C32.4784 13.6742 32.4784 13.6742 32.4787 13.6743C32.4792 13.6745 32.4807 13.6751 32.4832 13.676C32.4881 13.6778 32.4968 13.681 32.5091 13.6856C32.5337 13.6948 32.5727 13.7097 32.6242 13.7301C32.7274 13.771 32.8807 13.8341 33.0707 13.9188C33.4522 14.089 33.9744 14.3435 34.5343 14.6788C35.69 15.3709 36.8477 16.3139 37.3942 17.438L38.4788 16.9074L39.5634 16.3768C38.7238 14.6499 37.0991 13.4213 35.8189 12.6547C35.1609 12.2606 34.5519 11.964 34.1065 11.7654C33.8832 11.6657 33.6991 11.5899 33.5684 11.5381C33.503 11.5122 33.4508 11.4922 33.4135 11.4782C33.3949 11.4712 33.38 11.4657 33.369 11.4617C33.3635 11.4597 33.359 11.458 33.3555 11.4568C33.3538 11.4561 33.3523 11.4556 33.351 11.4552C33.3504 11.4549 33.3499 11.4547 33.3494 11.4546C33.3491 11.4545 33.3488 11.4544 33.3487 11.4543C33.3484 11.4542 33.3481 11.4541 32.9141 12.5645ZM38.4788 16.9074L37.3942 17.438C37.6595 17.9836 37.9594 19.1357 38.2043 20.2749C38.3213 20.819 38.4181 21.3226 38.4857 21.6905C38.5195 21.8741 38.5458 22.0233 38.5637 22.126C38.5726 22.1773 38.5793 22.217 38.5838 22.2435C38.5861 22.2568 38.5877 22.2667 38.5888 22.2732C38.5894 22.2764 38.5898 22.2788 38.59 22.2803C38.5901 22.281 38.5902 22.2815 38.5903 22.2818C38.5903 22.282 38.5903 22.2821 38.5903 22.2821C38.5903 22.2821 38.5903 22.2821 38.5903 22.2821C38.5903 22.2821 38.5903 22.282 39.7744 22.0642C40.9585 21.8464 40.9585 21.8463 40.9585 21.8462C40.9585 21.8462 40.9584 21.8461 40.9584 21.846C40.9584 21.8458 40.9583 21.8455 40.9583 21.8452C40.9582 21.8446 40.9581 21.8437 40.9579 21.8426C40.9575 21.8405 40.957 21.8374 40.9563 21.8335C40.955 21.8256 40.9531 21.8142 40.9506 21.7994C40.9456 21.7699 40.9383 21.7271 40.9288 21.6725C40.9099 21.5632 40.8822 21.4065 40.8469 21.2145C40.7764 20.8311 40.6751 20.3041 40.552 19.7316C40.3168 18.6373 39.969 17.211 39.5634 16.3768L38.4788 16.9074Z" fill="#2683FB"/>
<path d="M42.7959 18.6825L39.8899 22.3407L35.3598 19.2458" stroke="#2683FB" stroke-width="2.37957" stroke-linecap="round"/>
<path d="M31.2619 39.1935C31.7216 38.7328 31.6958 37.9982 31.2042 37.5527C30.7127 37.1072 29.9416 37.1195 29.482 37.5802L30.3719 38.3868L31.2619 39.1935ZM22.1293 40.5153L22.0543 41.6721L22.1293 40.5153ZM30.3719 38.3868C29.482 37.5802 29.4824 37.5798 29.4829 37.5793C29.483 37.5792 29.4835 37.5787 29.4838 37.5784C29.4843 37.5779 29.4849 37.5773 29.4854 37.5768C29.4864 37.5759 29.4872 37.575 29.4879 37.5744C29.4893 37.573 29.49 37.5722 29.4902 37.5721C29.4906 37.5717 29.4886 37.5736 29.4843 37.5777C29.4756 37.5857 29.4573 37.6023 29.4295 37.6261C29.3737 37.6737 29.2796 37.75 29.1461 37.8448C28.8791 38.0344 28.4552 38.2974 27.8656 38.5533C26.6936 39.0618 24.8371 39.5552 22.2044 39.3586L22.1293 40.5153L22.0543 41.6721C25.116 41.9008 27.3809 41.3299 28.9066 40.6679C29.6658 40.3384 30.2348 39.9896 30.6236 39.7136C30.8179 39.5756 30.9674 39.4557 31.0732 39.3654C31.1262 39.3202 31.1682 39.2823 31.1996 39.2532C31.2153 39.2386 31.2283 39.2263 31.2387 39.2162C31.2439 39.2112 31.2484 39.2068 31.2523 39.203C31.2542 39.2011 31.256 39.1994 31.2576 39.1978C31.2584 39.197 31.2592 39.1962 31.2599 39.1955C31.2602 39.1951 31.2608 39.1946 31.2609 39.1944C31.2614 39.1939 31.2619 39.1935 30.3719 38.3868ZM22.1293 40.5153L22.2044 39.3586C21.9231 39.3375 21.4721 39.239 20.8928 39.0651C20.333 38.897 19.7234 38.6802 19.1513 38.4618C18.5814 38.2442 18.0612 38.0298 17.683 37.8695C17.4942 37.7895 17.3417 37.7234 17.237 37.6775C17.1847 37.6546 17.1444 37.6368 17.1176 37.6249C17.1042 37.6189 17.0942 37.6145 17.0877 37.6116C17.0845 37.6101 17.0822 37.6091 17.0807 37.6084C17.08 37.6081 17.0795 37.6079 17.0793 37.6078C17.0791 37.6077 17.0791 37.6077 17.0791 37.6077C17.079 37.6077 17.0791 37.6077 17.0791 37.6077C17.0791 37.6077 17.0792 37.6077 16.5742 38.6556C16.0692 39.7034 16.0693 39.7035 16.0694 39.7035C16.0695 39.7035 16.0696 39.7036 16.0697 39.7036C16.0699 39.7037 16.0702 39.7039 16.0706 39.704C16.0712 39.7043 16.0722 39.7047 16.0733 39.7052C16.0756 39.7063 16.0788 39.7077 16.0829 39.7095C16.0911 39.7132 16.103 39.7185 16.1182 39.7253C16.1487 39.7388 16.1929 39.7583 16.2493 39.7831C16.3621 39.8325 16.5241 39.9027 16.7233 39.9871C17.121 40.1557 17.6708 40.3824 18.2772 40.6139C18.8814 40.8446 19.5543 41.0848 20.1954 41.2773C20.8171 41.464 21.4855 41.6297 22.0543 41.6721L22.1293 40.5153Z" fill="#2683FB"/>
<path d="M18.4081 43.4659L16.1899 38.4509L21.3826 36.7068" stroke="#2683FB" stroke-width="2.37957" stroke-linecap="round"/>
<path d="M14.0883 20.3979C14.1286 20.2446 14.2784 20.1401 14.445 20.1491L15.4862 20.2056C15.7033 20.2174 15.8556 20.4132 15.8032 20.613L14.1842 26.7794C14.144 26.9328 13.9941 27.0373 13.8275 27.0282L12.7863 26.9717C12.5692 26.9599 12.4169 26.7642 12.4694 26.5643L14.0883 20.3979Z" fill="#2683FB"/>
<path d="M31.1433 20.6576L32.7235 26.942C32.7638 27.102 32.9228 27.2092 33.0957 27.1929L34.1449 27.0935C34.3502 27.0741 34.4924 26.8904 34.4501 26.6992L33.0366 20.3048C32.9981 20.1304 32.8199 20.0169 32.6348 20.0488L31.4188 20.2581C31.223 20.2918 31.0972 20.4742 31.1433 20.6576Z" fill="#2683FB"/>
<path d="M21.5137 32.151C21.5137 32.151 21.9567 32.4312 22.2078 32.3153C22.5184 32.1719 22.3814 31.4937 22.3814 31.4937L20.7686 29.9667C20.5755 29.7838 20.4337 29.5506 20.4334 29.2919C20.4331 29.0705 20.4748 28.8161 20.646 28.7003C20.8764 28.5444 21.2817 28.6803 21.5128 28.7806C21.6308 28.8318 21.7327 28.9098 21.8222 28.9989C21.8222 28.9989 21.8222 28.9989 21.8222 28.9989L25.158 32.3153C25.158 32.3153 25.6605 32.4968 25.8522 32.3153C26.0439 32.1338 25.8522 31.658 25.8522 31.658L22.5737 28.3986C22.4468 28.2724 22.3442 28.1242 22.3024 27.9544C22.245 27.7218 22.2049 27.3885 22.3814 27.2215C22.5437 27.0678 22.8544 27.0876 23.0944 27.134C23.3141 27.1765 23.5002 27.3045 23.6487 27.4635L27.4141 31.4937C27.4141 31.4937 27.9165 31.6752 28.1082 31.4937C28.2999 31.3122 28.1082 30.8364 28.1082 30.8364L24.1248 26.7504C24.0049 26.6274 23.9067 26.4845 23.8697 26.3208C23.8265 26.1295 23.8043 25.8742 23.9432 25.7426C24.0658 25.6266 24.2899 25.6292 24.4797 25.6595C24.702 25.695 24.8888 25.8263 25.0377 25.9866L28.6288 29.8505C28.6288 29.8505 29.2569 30.0774 29.4965 29.8505C29.7362 29.6237 29.4965 29.0289 29.4965 29.0289L25.1774 24.6364C24.9403 24.3953 24.6231 24.2383 24.2786 24.1917C23.8448 24.1331 23.4054 24.2542 23.0727 24.5242L22.2997 25.1517C21.5823 25.7338 20.6273 25.9811 19.6969 25.8257L18.9378 25.6988C18.4814 25.6226 18.0857 25.3555 17.8607 24.972C17.5521 24.4461 17.6168 23.7948 18.0236 23.3326L19.4774 21.6808C19.6658 21.4667 19.505 21.1417 19.2108 21.1417H17.1055C16.9433 21.1417 16.8027 21.2481 16.767 21.398L15.7355 25.7233C15.6591 26.0435 15.7561 26.3787 15.9941 26.6174L21.5137 32.151Z" fill="#2683FB"/>
<path d="M24.1168 19.8272C23.6929 19.8872 23.4715 20.0004 23.0755 20.1558C21.3767 20.8228 19.7319 22.9442 19.1408 23.7679C18.9938 23.9728 18.9818 24.2344 19.0988 24.4559C19.194 24.6362 19.3989 24.74 19.61 24.715L20.1986 24.6453C20.492 24.6106 20.7711 24.5055 21.0096 24.3399L22.7909 23.103C23.0886 22.8963 23.4481 22.7849 23.8172 22.7849H24.7059C25.0968 22.7849 25.4618 22.9699 25.6786 23.2779L30.3642 27.8787L31.4055 27.2215L30.2535 22.2351C30.2173 22.0782 30.0673 21.9687 29.8978 21.9719C29.3863 21.9813 28.3157 21.976 27.5876 21.799C26.0566 21.4268 25.6801 19.6058 24.1168 19.8272Z" fill="#2683FB"/>
</svg>
