<svg width="48" height="48" viewBox="0 0 48 48" fill="none" xmlns="http://www.w3.org/2000/svg">
<rect width="47.8537" height="47.8537" rx="21.7517" fill="white"/>
<path d="M11.0469 6.5918H32.9932C33.6371 6.5918 34.1591 7.11385 34.1592 7.75781V36.707C34.1592 37.351 33.6372 37.873 32.9932 37.873H11.0469C10.4029 37.873 9.88086 37.351 9.88086 36.707V7.75781C9.8809 7.11387 10.4029 6.59183 11.0469 6.5918Z" fill="#4CAF50" stroke="#4CAF50" stroke-width="2.3321"/>
<path d="M39.137 40.0906C39.137 41.3802 38.0916 42.4257 36.8019 42.4257H15.1613C13.8716 42.4257 12.8262 41.3802 12.8262 40.0906V11.8722C12.8262 10.5826 13.8716 9.53711 15.1613 9.53711H29.9809C30.5805 9.53711 31.1571 9.76776 31.5913 10.1813L38.4124 16.6775C38.8751 17.1183 39.137 17.7294 39.137 18.3685V40.0906Z" fill="#FFBA00"/>
<path d="M17.7598 21.0508H34.9258" stroke="#2683FB" stroke-width="1.64443" stroke-linecap="round"/>
<path d="M17.7598 25.1621H34.9258" stroke="#2683FB" stroke-width="1.64443" stroke-linecap="round"/>
<path d="M17.7598 29.2734H34.9258" stroke="#2683FB" stroke-width="1.64443" stroke-linecap="round"/>
<path d="M17.7598 33.3848H34.9258" stroke="#2683FB" stroke-width="1.64443" stroke-linecap="round"/>
<path d="M17.7598 37.4941H34.9258" stroke="#2683FB" stroke-width="1.64443" stroke-linecap="round"/>
<path d="M35.8454 16.9372H30.9121V12.0039L35.8454 16.9372Z" fill="#E74235"/>
</svg>
