<svg width="48" height="48" viewBox="0 0 48 48" fill="none" xmlns="http://www.w3.org/2000/svg">
<rect width="47.8537" height="47.8537" rx="21.7517" fill="white"/>
<path d="M7.65649 10.9861L16.9224 20.4095C18.6335 22.1497 18.6216 24.9594 16.8959 26.6851L7.61606 35.965" stroke="#E74235" stroke-width="2.77503" stroke-linecap="round"/>
<path d="M9.02744 19.4687C11.0841 19.4688 12.7389 21.1454 12.7214 23.2157C12.704 25.286 11.021 26.9625 8.96425 26.9626C6.90745 26.9626 5.25183 25.286 5.26928 23.2157C5.28677 21.1453 6.97065 19.4687 9.02744 19.4687Z" fill="#E74235" stroke="#E74235" stroke-width="0.441896"/>
<path d="M40.1247 36.6865L30.5837 27.5417C28.8218 25.853 28.7504 23.0442 30.4242 21.2681L39.425 11.7174" stroke="#FFBA00" stroke-width="2.77503" stroke-linecap="round"/>
<ellipse cx="3.9471" cy="3.96783" rx="3.9471" ry="3.96783" transform="matrix(1 0 0.00843107 -0.999964 34.5527 27.7578)" fill="#FFBA00"/>
<path d="M11.7033 7.77683L21.0606 17.1095C22.7886 18.8329 25.5747 18.8175 27.2835 17.0751L36.4724 7.70519" stroke="#4CAF50" stroke-width="2.77503" stroke-linecap="round"/>
<ellipse cx="3.9471" cy="3.96783" rx="3.9471" ry="3.96783" transform="matrix(1 0 0.00843107 -0.999964 20.2266 13.1934)" fill="#4CAF50"/>
<path d="M35.7463 39.738L26.4805 30.3146C24.7694 28.5744 21.9833 28.5626 20.2576 30.2884L10.9777 39.5682" stroke="#2683FB" stroke-width="2.77503" stroke-linecap="round"/>
<ellipse cx="3.9471" cy="3.96783" rx="3.9471" ry="3.96783" transform="matrix(1 0 -0.00843107 0.999964 19.3691 34.1035)" fill="#2683FB"/>
</svg>
