<svg width="39" height="38" viewBox="0 0 39 38" fill="none" xmlns="http://www.w3.org/2000/svg">
<path d="M2.65703 5.83711L12.1028 15.4435C13.8471 17.2175 13.835 20.0817 12.0758 21.8409L2.61582 31.3009" stroke="#E74235" stroke-width="2.8289" stroke-linecap="round"/>
<path d="M4.05572 14.4853C6.15245 14.4853 7.84014 16.194 7.82234 18.3045C7.80451 20.4151 6.08802 22.1237 3.99131 22.1237C1.89474 22.1236 0.20791 20.415 0.225663 18.3045C0.243457 16.1941 1.95911 14.4855 4.05572 14.4853Z" fill="#E74235" stroke="#E74235" stroke-width="0.450474"/>
<path d="M35.7554 32.034L26.0292 22.7117C24.2331 20.9901 24.1603 18.1268 25.8666 16.3163L35.0422 6.58015" stroke="#FFBA00" stroke-width="2.8289" stroke-linecap="round"/>
<ellipse cx="4.02371" cy="4.04484" rx="4.02371" ry="4.04484" transform="matrix(1 0 0.00843107 -0.999964 30.0732 22.9336)" fill="#FFBA00"/>
<path d="M6.78081 2.56682L16.3197 12.0806C18.0813 13.8375 20.9214 13.8218 22.6634 12.0455L32.0307 2.49379" stroke="#4CAF50" stroke-width="2.8289" stroke-linecap="round"/>
<ellipse cx="4.02371" cy="4.04484" rx="4.02371" ry="4.04484" transform="matrix(1 0 0.00843107 -0.999964 15.4697 8.08984)" fill="#4CAF50"/>
<path d="M31.2908 35.1496L21.8451 25.5432C20.1008 23.7693 17.2606 23.7573 15.5014 25.5165L6.04141 34.9765" stroke="#2683FB" stroke-width="2.8289" stroke-linecap="round"/>
<ellipse cx="4.02371" cy="4.04484" rx="4.02371" ry="4.04484" transform="matrix(1 0 -0.00843107 0.999964 14.5957 29.4062)" fill="#2683FB"/>
</svg>
