<svg width="48" height="48" viewBox="0 0 48 48" fill="none" xmlns="http://www.w3.org/2000/svg">
<rect width="47.8537" height="47.8537" rx="21.7517" fill="white"/>
<path d="M18.4922 29.3732C20.8158 24.6391 22.4777 23.1362 26.8223 21.4862L26.5269 11.2656H28.6537L29.5399 23.938C24.8249 23.7237 22.4041 24.903 18.4922 29.3732Z" fill="#2683FB"/>
<path d="M18.4922 30.5259C23.7154 25.1062 26.1724 24.5589 30.8691 25.2088L29.8943 13.5703H31.3713L32.996 27.1584C26.762 25.6868 23.3095 26.4641 18.4922 30.5259Z" fill="#2683FB"/>
<path d="M18.4648 31.9754C21.1176 28.92 25.1998 27.4559 34.0025 28.667L32.6142 16.6445H33.8253L35.9521 30.9415C27.6473 28.6421 23.5777 28.8491 18.4648 31.9754Z" fill="#2683FB"/>
<path d="M28.7734 40.1303L37.1331 39.1555C37.1331 39.1555 36.7786 38.2103 32.968 38.2988C29.1574 38.3874 28.7734 40.1303 28.7734 40.1303Z" fill="#FFBA00"/>
<path d="M15.0353 32.0307V33.4511C15.0353 34.5222 15.9391 35.3712 17.0081 35.3044L44.4877 33.5869C45.4664 33.5258 46.2288 32.7142 46.2288 31.7336V18.6849C46.2288 17.727 45.5002 16.9263 44.5466 16.8362L32.1681 15.6659V14.4844L45.4312 15.9054C46.3601 16.0049 47.0705 16.7791 47.0899 17.7131L47.4333 34.1928C47.4536 35.1703 46.7126 35.9961 45.7386 36.0814L16.0794 38.6776C14.9941 38.7726 14.0605 37.9171 14.0605 36.8277V31.4695L15.0353 32.0307Z" fill="#FFBA00"/>
<path d="M17.3994 18.0919C12.0177 14.6197 8.8498 14.0344 2.80699 16.5263L0.384766 31.1483C7.3102 28.6962 11.0802 28.906 17.3994 32.2708V18.0919Z" fill="#4CAF50"/>
<path d="M18.6113 28.3706V16.0527C19.5826 10.6898 20.9669 9.05518 24.401 7.72266L25.3758 20.6313C22.768 21.9113 19.7338 25.3871 18.6113 28.3706Z" fill="#E74235"/>
</svg>
