<svg width="48" height="48" viewBox="0 0 48 48" fill="none" xmlns="http://www.w3.org/2000/svg">
<rect width="47.8537" height="47.8537" rx="21.7517" fill="white"/>
<circle cx="24.1128" cy="13.4643" r="5.6616" fill="#2683FB"/>
<path d="M14.8184 19.8991L15.8091 14.6621H16.5451L17.5359 19.8991L16.1771 21.2579L14.8184 19.8991Z" fill="#E74235"/>
<path d="M15.8114 13.5547H16.5476L17.0856 14.0077L16.5476 14.659H15.8114L15.2734 14.0077L15.8114 13.5547Z" fill="#E74235"/>
<path d="M28.5332 19.125C31.3004 20.6753 33.1719 23.6338 33.1719 27.0312C33.1719 32.0341 26.661 36.3727 24.1133 40.0527C21.2824 36.3727 15.0547 32.0341 15.0547 27.0312C15.0547 23.6342 16.9256 20.6754 19.6924 19.125C20.8207 20.262 22.3849 20.9658 24.1133 20.9658C25.8415 20.9657 27.405 20.2618 28.5332 19.125ZM24.1133 21.3711C20.9867 21.3713 18.4523 23.9056 18.4521 27.0322C18.4521 30.1589 20.9866 32.6942 24.1133 32.6943C27.2401 32.6943 29.7754 30.159 29.7754 27.0322C29.7753 23.9055 27.24 21.3711 24.1133 21.3711Z" fill="#2683FB"/>
<path d="M33.7373 13.4648C36.8638 13.4652 39.3983 16.0004 39.3984 19.127C39.3983 22.0672 37.1565 24.483 34.2891 24.7607C34.1485 21.7666 32.5552 19.1533 30.1973 17.6094C30.9936 16.6341 31.4727 15.3895 31.4727 14.0322C31.4727 14.0009 31.4702 13.9697 31.4697 13.9385C32.1641 13.6346 32.9309 13.4648 33.7373 13.4648Z" fill="#4CAF50"/>
<path d="M14.4863 13.4648C11.3596 13.4648 8.82432 16.0002 8.82422 19.127C8.82438 22.0675 11.0668 24.4834 13.9346 24.7607C14.076 21.7672 15.6693 19.1548 18.0273 17.6113C17.2303 16.6358 16.751 15.3902 16.751 14.0322C16.751 14.0009 16.7534 13.9697 16.7539 13.9385C16.0595 13.6345 15.2928 13.4649 14.4863 13.4648Z" fill="#4CAF50"/>
<path d="M9.3916 25.0098C10.3156 25.9155 11.5487 26.5058 12.918 26.6104C12.8351 27.1025 12.792 27.6083 12.792 28.124C12.7922 32.6304 17.8452 36.5986 20.917 40.0312H5.42773V31.5391C5.42798 28.6999 7.03682 26.2372 9.3916 25.0098Z" fill="#FFBA00"/>
<path d="M38.4658 24.9355C37.5423 25.8417 36.3103 26.4326 34.9414 26.5381C35.024 27.0294 35.0674 27.534 35.0674 28.0488C35.0672 32.5555 30.0141 36.5242 26.9424 39.957H42.4277V31.4648C42.4275 28.626 40.8201 26.1631 38.4658 24.9355Z" fill="#FFBA00"/>
</svg>
