<svg width="48" height="48" viewBox="0 0 48 48" fill="none" xmlns="http://www.w3.org/2000/svg">
<rect width="47.8537" height="47.8537" rx="21.7517" fill="white"/>
<path d="M41.9743 20.3923C41.9743 30.3592 33.8945 38.4389 23.9276 38.4389C13.9606 38.4389 5.88086 30.3592 5.88086 20.3923C5.88086 10.4254 13.9606 2.3457 23.9276 2.3457C33.8945 2.3457 41.9743 10.4254 41.9743 20.3923ZM8.04646 20.3923C8.04646 29.1632 15.1567 36.2733 23.9276 36.2733C32.6985 36.2733 39.8087 29.1632 39.8087 20.3923C39.8087 11.6215 32.6985 4.5113 23.9276 4.5113C15.1567 4.5113 8.04646 11.6215 8.04646 20.3923Z" fill="#4CAF50"/>
<g filter="url(#filter0_d_16989_77109)">
<ellipse cx="32.417" cy="26.0822" rx="5.57325" ry="1.99044" fill="#2683FB"/>
</g>
<ellipse cx="16.4961" cy="40.8553" rx="6.63482" ry="2.38852" fill="#2683FB"/>
<path d="M16.9441 15.2656C11.8619 15.2656 7.73828 19.0092 7.73828 23.6221C7.73828 31.0501 16.9441 41.2636 16.9441 41.2636C16.9441 41.2636 26.1499 31.0501 26.1499 23.6221C26.1499 19.0092 22.0263 15.2656 16.9441 15.2656ZM16.9441 28.2646C16.2158 28.2646 15.5039 28.0468 14.8983 27.6387C14.2927 27.2306 13.8208 26.6505 13.5421 25.9719C13.2634 25.2932 13.1904 24.5465 13.3325 23.826C13.4746 23.1056 13.8253 22.4438 14.3403 21.9244C14.8553 21.405 15.5114 21.0513 16.2257 20.908C16.94 20.7647 17.6804 20.8382 18.3533 21.1193C19.0261 21.4004 19.6012 21.8765 20.0058 22.4872C20.4104 23.098 20.6264 23.816 20.6264 24.5506C20.6253 25.5353 20.237 26.4793 19.5467 27.1756C18.8564 27.8719 17.9204 28.2635 16.9441 28.2646Z" fill="#FFBA00"/>
<path d="M17.0239 40.8544C19.0251 41.6616 28.4265 39.2463 31.7932 35.0476C35.0028 31.0451 24.9519 24.4159 21.6807 28.3682C20.6632 29.5976 21.5143 31.8797 22.9989 32.4652C27.1583 34.1059 33.5489 30.9957 32.6821 23.3384" stroke="#E74235" stroke-width="0.682513" stroke-linecap="round" stroke-linejoin="round" stroke-dasharray="1.09 0.41"/>
<g filter="url(#filter1_d_16989_77109)">
<path d="M32.49 3.41016C28.644 3.41016 25.5234 6.24314 25.5234 9.73398C25.5234 15.3552 32.49 23.0843 32.49 23.0843C32.49 23.0843 39.4566 15.3552 39.4566 9.73398C39.4566 6.24314 36.336 3.41016 32.49 3.41016ZM32.49 13.2472C31.9389 13.2472 31.4001 13.0824 30.9418 12.7735C30.4836 12.4647 30.1264 12.0258 29.9155 11.5122C29.7046 10.9986 29.6494 10.4335 29.7569 9.88831C29.8644 9.34311 30.1298 8.84231 30.5196 8.44924C30.9093 8.05617 31.4058 7.78849 31.9464 7.68004C32.4869 7.5716 33.0472 7.62726 33.5564 7.83998C34.0656 8.05271 34.5008 8.41295 34.807 8.87515C35.1132 9.33735 35.2766 9.88075 35.2766 10.4366C35.2758 11.1818 34.982 11.8962 34.4595 12.4231C33.9371 12.95 33.2288 13.2464 32.49 13.2472Z" fill="#FFBA00"/>
</g>
<defs>
<filter id="filter0_d_16989_77109" x="25.4787" y="24.0918" width="13.8765" height="6.71052" filterUnits="userSpaceOnUse" color-interpolation-filters="sRGB">
<feFlood flood-opacity="0" result="BackgroundImageFix"/>
<feColorMatrix in="SourceAlpha" type="matrix" values="0 0 0 0 0 0 0 0 0 0 0 0 0 0 0 0 0 0 127 0" result="hardAlpha"/>
<feOffset dy="1.36503"/>
<feGaussianBlur stdDeviation="0.682513"/>
<feComposite in2="hardAlpha" operator="out"/>
<feColorMatrix type="matrix" values="0 0 0 0 0 0 0 0 0 0 0 0 0 0 0 0 0 0 0.25 0"/>
<feBlend mode="normal" in2="BackgroundImageFix" result="effect1_dropShadow_16989_77109"/>
<feBlend mode="normal" in="SourceGraphic" in2="effect1_dropShadow_16989_77109" result="shape"/>
</filter>
<filter id="filter1_d_16989_77109" x="22.7934" y="3.41016" width="19.3937" height="25.1339" filterUnits="userSpaceOnUse" color-interpolation-filters="sRGB">
<feFlood flood-opacity="0" result="BackgroundImageFix"/>
<feColorMatrix in="SourceAlpha" type="matrix" values="0 0 0 0 0 0 0 0 0 0 0 0 0 0 0 0 0 0 127 0" result="hardAlpha"/>
<feOffset dy="2.73005"/>
<feGaussianBlur stdDeviation="1.36503"/>
<feComposite in2="hardAlpha" operator="out"/>
<feColorMatrix type="matrix" values="0 0 0 0 0 0 0 0 0 0 0 0 0 0 0 0 0 0 0.25 0"/>
<feBlend mode="normal" in2="BackgroundImageFix" result="effect1_dropShadow_16989_77109"/>
<feBlend mode="normal" in="SourceGraphic" in2="effect1_dropShadow_16989_77109" result="shape"/>
</filter>
</defs>
</svg>
