<svg width="110" height="46" viewBox="0 0 110 46" fill="none" xmlns="http://www.w3.org/2000/svg">
<rect x="0.328125" y="0.0351562" width="19.1083" height="19.1083" rx="9.55414" fill="#2683FB"/>
<path d="M13.6581 13.8924C14.5948 13.8924 15.3612 13.1261 15.3612 12.1894C15.3612 11.2527 14.5948 10.4863 13.6581 10.4863C12.7215 10.4863 11.9551 11.2527 11.9551 12.1894C11.9551 13.1261 12.7215 13.8924 13.6581 13.8924Z" stroke="white" stroke-width="0.510917" stroke-linecap="round" stroke-linejoin="round"/>
<path d="M12.9355 12.1909L13.4175 12.6729L14.3831 11.709" stroke="white" stroke-width="0.510917" stroke-linecap="round" stroke-linejoin="round"/>
<path d="M8.46484 9.21171V8.87931C8.46484 8.42777 8.56511 7.96271 8.89155 7.65074C9.06213 7.48772 9.26959 7.34853 9.48668 7.33848C9.67021 7.32998 9.85572 7.41416 10.021 7.52955C10.4557 7.83295 10.5937 8.38952 10.5937 8.91963V9.21171" stroke="white" stroke-width="0.510917" stroke-linecap="round"/>
<path d="M14.2547 9.29628V6.50027C14.2547 6.13552 14.0224 5.81127 13.677 5.69397L10.2656 4.53537C9.92501 4.41971 9.55659 4.41484 9.2131 4.52144L5.40187 5.70423C5.04557 5.81481 4.80273 6.14443 4.80273 6.5175V11.3695C4.80273 11.9366 5.08494 12.4664 5.55549 12.7828L9.29855 15.2997C9.56949 15.4819 9.92074 15.4931 10.2028 15.3286L11.7853 14.4054" stroke="white" stroke-width="1.02183" stroke-linecap="round"/>
<path d="M8.20801 9.55273H10.7627C10.9037 9.55273 11.0185 9.66661 11.0186 9.80762V11.3408C11.0184 11.6699 10.751 11.9365 10.4219 11.9365H8.54883C8.21972 11.9365 7.95328 11.6699 7.95312 11.3408V9.80762C7.95322 9.66667 8.06706 9.55283 8.20801 9.55273Z" stroke="white" stroke-width="0.510917"/>
<rect x="11.5684" y="12.9609" width="19.1083" height="19.1083" rx="9.55414" fill="#E74235"/>
<path d="M17.6905 17.9878C17.6905 17.847 17.6346 17.712 17.535 17.6125C17.4355 17.513 17.3005 17.457 17.1597 17.457C17.0189 17.457 16.8839 17.513 16.7844 17.6125C16.6848 17.712 16.6289 17.847 16.6289 17.9878V25.1534C16.6289 25.6461 16.8246 26.1187 17.173 26.467C17.5214 26.8154 17.9939 27.0112 18.4867 27.0112H25.6523C25.793 27.0112 25.928 26.9552 26.0276 26.8557C26.1271 26.7562 26.183 26.6212 26.183 26.4804C26.183 26.3396 26.1271 26.2046 26.0276 26.1051C25.928 26.0055 25.793 25.9496 25.6523 25.9496H18.4867C18.2755 25.9496 18.073 25.8657 17.9237 25.7164C17.7744 25.5671 17.6905 25.3646 17.6905 25.1534V17.9878ZM22.9983 19.0494C22.8576 19.0494 22.7226 19.1053 22.623 19.2049C22.5235 19.3044 22.4675 19.4394 22.4675 19.5802C22.4675 19.7209 22.5235 19.856 22.623 19.9555C22.7226 20.055 22.8576 20.111 22.9983 20.111H24.1056L22.0695 22.1471L21.1178 21.1954C21.0182 21.0958 20.8832 21.0399 20.7425 21.0399C20.6017 21.0399 20.4668 21.0958 20.3672 21.1954L18.6422 22.9204C18.5915 22.9694 18.551 23.0279 18.5232 23.0927C18.4954 23.1575 18.4808 23.2271 18.4802 23.2976C18.4795 23.3681 18.493 23.438 18.5197 23.5032C18.5463 23.5684 18.5858 23.6277 18.6356 23.6775C18.6854 23.7274 18.7447 23.7668 18.8099 23.7935C18.8752 23.8201 18.9451 23.8336 19.0155 23.833C19.086 23.8323 19.1557 23.8177 19.2204 23.7899C19.2852 23.7621 19.3437 23.7216 19.3927 23.6709L20.7425 22.3211L21.6942 23.2728C21.7937 23.3724 21.9287 23.4283 22.0695 23.4283C22.2102 23.4283 22.3452 23.3724 22.4447 23.2728L24.8566 20.8615L24.8561 21.9687C24.8561 22.1095 24.912 22.2445 25.0115 22.344C25.1111 22.4436 25.2461 22.4995 25.3869 22.4995C25.5276 22.4995 25.6626 22.4436 25.7622 22.344C25.8617 22.2445 25.9177 22.1095 25.9177 21.9687L25.9187 19.5802C25.9187 19.4394 25.8628 19.3044 25.7632 19.2049C25.6637 19.1053 25.5287 19.0494 25.3879 19.0494H22.9983Z" fill="white"/>
<g clip-path="url(#clip0_16989_76863)">
<rect x="0.328125" y="25.8867" width="19.1083" height="19.1083" rx="9.55414" fill="#4CAF50"/>
<mask id="path-10-inside-1_16989_76863" fill="white">
<path d="M5.56375 31.9925C5.36361 31.8364 5.07319 31.8712 4.93283 32.0827C4.20716 33.176 3.85662 34.4809 3.94238 35.7987C4.03813 37.27 4.67098 38.6547 5.72071 39.69C6.77043 40.7252 8.16387 41.3387 9.63627 41.414C10.9552 41.4815 12.2551 41.1128 13.3382 40.372C13.5477 40.2288 13.5785 39.9379 13.4196 39.7399C13.2608 39.542 12.9725 39.5122 12.7611 39.6526C11.8553 40.2539 10.777 40.552 9.6832 40.4961C8.43584 40.4323 7.25538 39.9126 6.36609 39.0355C5.47681 38.1585 4.94068 36.9854 4.85957 35.7391C4.78844 34.6462 5.07153 33.5638 5.66021 32.6497C5.79764 32.4364 5.76389 32.1486 5.56375 31.9925Z"/>
</mask>
<path d="M5.56375 31.9925C5.36361 31.8364 5.07319 31.8712 4.93283 32.0827C4.20716 33.176 3.85662 34.4809 3.94238 35.7987C4.03813 37.27 4.67098 38.6547 5.72071 39.69C6.77043 40.7252 8.16387 41.3387 9.63627 41.414C10.9552 41.4815 12.2551 41.1128 13.3382 40.372C13.5477 40.2288 13.5785 39.9379 13.4196 39.7399C13.2608 39.542 12.9725 39.5122 12.7611 39.6526C11.8553 40.2539 10.777 40.552 9.6832 40.4961C8.43584 40.4323 7.25538 39.9126 6.36609 39.0355C5.47681 38.1585 4.94068 36.9854 4.85957 35.7391C4.78844 34.6462 5.07153 33.5638 5.66021 32.6497C5.79764 32.4364 5.76389 32.1486 5.56375 31.9925Z" fill="white" stroke="white" stroke-width="0.279706" mask="url(#path-10-inside-1_16989_76863)"/>
<path d="M3.58398 32.2559L5.68731 31.7314C5.76226 31.7128 5.83816 31.7584 5.85685 31.8333L6.36435 33.8688" stroke="white" stroke-width="0.839118" stroke-linecap="round"/>
<circle cx="10.0125" cy="35.4774" r="0.209779" fill="white"/>
<circle cx="10.0125" cy="35.4793" r="0.209779" fill="white"/>
<rect x="7.70508" y="29.7285" width="0.403227" height="0.839118" transform="rotate(-20.2741 7.70508 29.7285)" fill="white"/>
<circle cx="10.0125" cy="35.4793" r="0.209779" fill="white"/>
<rect x="8.71875" y="29.418" width="0.403227" height="0.839118" transform="rotate(-10.3504 8.71875 29.418)" fill="white"/>
<circle cx="10.0025" cy="35.4791" r="0.209779" transform="rotate(9.92377 10.0025 35.4791)" fill="white"/>
<rect x="9.77148" y="29.2891" width="0.403228" height="0.839118" transform="rotate(-0.426592 9.77148 29.2891)" fill="white"/>
<circle cx="9.99133" cy="35.4795" r="0.209779" transform="rotate(19.8475 9.99133 35.4795)" fill="white"/>
<rect x="10.832" y="29.3418" width="0.403228" height="0.839118" transform="rotate(9.49718 10.832 29.3418)" fill="white"/>
<circle cx="9.98027" cy="35.4796" r="0.209779" transform="rotate(29.7713 9.98027 35.4796)" fill="white"/>
<rect x="11.8672" y="29.5762" width="0.403228" height="0.839118" transform="rotate(19.421 11.8672 29.5762)" fill="white"/>
<circle cx="9.96884" cy="35.4751" r="0.209779" transform="rotate(39.6951 9.96884 35.4751)" fill="white"/>
<rect x="12.8438" y="29.9844" width="0.403228" height="0.839118" transform="rotate(29.3447 12.8438 29.9844)" fill="white"/>
<circle cx="9.95853" cy="35.4676" r="0.209779" transform="rotate(49.6189 9.95853 35.4676)" fill="white"/>
<rect x="13.7383" y="30.5586" width="0.403228" height="0.839118" transform="rotate(39.2685 13.7383 30.5586)" fill="white"/>
<circle cx="9.9509" cy="35.461" r="0.209779" transform="rotate(59.5426 9.9509 35.461)" fill="white"/>
<rect x="14.5195" y="31.2734" width="0.403228" height="0.839118" transform="rotate(49.1923 14.5195 31.2734)" fill="white"/>
<circle cx="9.94354" cy="35.4517" r="0.209779" transform="rotate(69.4664 9.94354 35.4517)" fill="white"/>
<rect x="15.1641" y="32.1152" width="0.403228" height="0.839118" transform="rotate(59.116 15.1641 32.1152)" fill="white"/>
<circle cx="9.9379" cy="35.4421" r="0.209779" transform="rotate(79.3902 9.9379 35.4421)" fill="white"/>
<rect x="15.6562" y="33.0566" width="0.403228" height="0.839118" transform="rotate(69.0398 15.6562 33.0566)" fill="white"/>
<circle cx="9.93337" cy="35.433" r="0.209779" transform="rotate(89.314 9.93337 35.433)" fill="white"/>
<rect x="15.9785" y="34.0664" width="0.403228" height="0.839118" transform="rotate(78.9636 15.9785 34.0664)" fill="white"/>
<circle cx="9.93309" cy="35.4214" r="0.209779" transform="rotate(99.2377 9.93309 35.4214)" fill="white"/>
<rect x="16.1211" y="35.1152" width="0.403228" height="0.839118" transform="rotate(88.8874 16.1211 35.1152)" fill="white"/>
<circle cx="9.93221" cy="35.4066" r="0.209779" transform="rotate(109.162 9.93221 35.4066)" fill="white"/>
<rect x="16.082" y="36.1758" width="0.403228" height="0.839118" transform="rotate(98.8111 16.082 36.1758)" fill="white"/>
<circle cx="9.9354" cy="35.3978" r="0.209779" transform="rotate(119.085 9.9354 35.3978)" fill="white"/>
<rect x="15.8594" y="37.2148" width="0.403228" height="0.839118" transform="rotate(108.735 15.8594 37.2148)" fill="white"/>
<circle cx="9.93932" cy="35.3884" r="0.209779" transform="rotate(129.009 9.93932 35.3884)" fill="white"/>
<rect x="15.4609" y="38.1953" width="0.403228" height="0.839118" transform="rotate(118.659 15.4609 38.1953)" fill="white"/>
<circle cx="9.94426" cy="35.3761" r="0.209779" transform="rotate(138.933 9.94426 35.3761)" fill="white"/>
<rect x="14.9004" y="39.0977" width="0.403228" height="0.839118" transform="rotate(128.582 14.9004 39.0977)" fill="white"/>
<circle cx="9.9522" cy="35.3684" r="0.209779" transform="rotate(148.857 9.9522 35.3684)" fill="white"/>
<path d="M10.0122 35.9674L8.68359 32.1914" stroke="white" stroke-width="0.559412" stroke-linecap="round"/>
<path d="M9.87171 35.8266L13.8555 35.0176" stroke="white" stroke-width="0.559412" stroke-linecap="round"/>
<circle cx="10.0125" cy="35.7586" r="0.559412" fill="white"/>
<path d="M18.5508 26.4316H25.7036" stroke="white" stroke-width="0.170306"/>
</g>
<path d="M56.645 18.6744C57.4475 18.4422 58.4822 18.231 59.7492 18.0409C61.0163 17.8298 62.3466 17.7242 63.7403 17.7242C65.1552 17.7242 66.3272 17.9142 67.2563 18.2943C68.2066 18.6533 68.9563 19.1707 69.5053 19.8464C70.0543 20.5222 70.445 21.3246 70.6773 22.2538C70.9096 23.1829 71.0257 24.2177 71.0257 25.358V34.7656H66.3061V25.9281C66.3061 24.4077 66.1055 23.3307 65.7042 22.6972C65.303 22.0637 64.5534 21.747 63.4553 21.747C63.1174 21.747 62.7584 21.7681 62.3783 21.8103C61.9982 21.8314 61.6603 21.8631 61.3647 21.9053V34.7656H56.645V18.6744Z" fill="white"/>
<path d="M100.808 10.1346C101.695 10.1346 102.508 10.2296 103.247 10.4197C103.987 10.5886 104.557 10.7576 104.958 10.9265L104.039 14.6959C103.617 14.5058 103.152 14.3686 102.646 14.2841C102.16 14.1785 101.706 14.1257 101.284 14.1257C100.713 14.1257 100.228 14.2102 99.8265 14.3791C99.4464 14.527 99.1402 14.7381 98.9079 15.0126C98.6968 15.2872 98.5384 15.6145 98.4328 15.9946C98.3483 16.3747 98.3061 16.7865 98.3061 17.2299V18.0535H104.134V21.9813H98.3061V34.7148H93.5864V17.1666C93.5864 15.0126 94.1883 13.3022 95.3919 12.0351C96.6167 10.7681 98.4222 10.1346 100.808 10.1346Z" fill="white"/>
<path d="M79.5645 27.8552C79.5645 26.4585 80.6967 25.3262 82.0935 25.3262C83.4902 25.3262 84.6225 26.4585 84.6225 27.8552V34.8803H79.5645V27.8552Z" fill="white"/>
<path d="M92.055 13.3068C92.055 18.7737 87.6233 23.2054 82.1564 23.2054C76.6896 23.2054 72.2578 18.7737 72.2578 13.3068C72.2578 7.83996 76.6896 3.4082 82.1564 3.4082C87.6233 3.4082 92.055 7.83996 92.055 13.3068ZM75.2274 13.3068C75.2274 17.1336 78.3296 20.2358 82.1564 20.2358C85.9832 20.2358 89.0854 17.1336 89.0854 13.3068C89.0854 9.48002 85.9832 6.37779 82.1564 6.37779C78.3296 6.37779 75.2274 9.48002 75.2274 13.3068Z" fill="white"/>
<path d="M43.4755 34.5958C41.934 34.5958 40.6036 34.3846 39.4844 33.9623C38.3652 33.5188 37.4361 32.917 36.697 32.1568C35.979 31.3755 35.4405 30.4569 35.0815 29.401C34.7436 28.324 34.5747 27.1415 34.5747 25.8533V12.2012H39.5161V25.4416C39.5161 26.3285 39.6111 27.0887 39.8012 27.7222C40.0123 28.3346 40.2869 28.8414 40.6247 29.2426C40.9837 29.6227 41.4061 29.8973 41.8918 30.0662C42.3986 30.2351 42.9476 30.3196 43.5389 30.3196C44.7426 30.3196 45.7139 29.9501 46.453 29.211C47.2133 28.4719 47.5934 27.2154 47.5934 25.4416V12.2012H52.5348V25.8533C52.5348 27.1415 52.3553 28.324 51.9963 29.401C51.6373 30.478 51.0882 31.4071 50.3491 32.1885C49.61 32.9487 48.6703 33.5399 47.53 33.9623C46.3897 34.3846 45.0382 34.5958 43.4755 34.5958Z" fill="white"/>
<path d="M34.5344 42.2123C34.1453 42.2123 33.7723 42.1613 33.4156 42.0594C33.0589 41.9529 32.7717 41.8162 32.5539 41.6494L32.9361 40.8016C33.1446 40.9499 33.3901 41.0727 33.6727 41.1699C33.96 41.2626 34.2495 41.3089 34.5414 41.3089C34.7637 41.3089 34.9421 41.2881 35.0764 41.2464C35.2154 41.2001 35.3173 41.1375 35.3822 41.0588C35.447 40.98 35.4795 40.8897 35.4795 40.7877C35.4795 40.658 35.4285 40.5561 35.3266 40.482C35.2247 40.4032 35.0903 40.3407 34.9236 40.2944C34.7568 40.2434 34.5715 40.1971 34.3676 40.1554C34.1684 40.1091 33.9669 40.0535 33.7631 39.9886C33.5639 39.9238 33.3809 39.8404 33.2141 39.7384C33.0473 39.6365 32.9107 39.5022 32.8041 39.3354C32.7022 39.1686 32.6512 38.9555 32.6512 38.6961C32.6512 38.4181 32.7254 38.1657 32.8736 37.9387C33.0265 37.707 33.2535 37.524 33.5546 37.3897C33.8604 37.2507 34.2426 37.1812 34.7012 37.1812C35.0069 37.1812 35.3081 37.2183 35.6046 37.2924C35.9011 37.3619 36.1628 37.4684 36.3898 37.6121L36.0423 38.4668C35.8153 38.3371 35.5883 38.2421 35.3613 38.1819C35.1343 38.117 34.912 38.0846 34.6942 38.0846C34.4765 38.0846 34.2981 38.1101 34.1592 38.161C34.0202 38.212 33.9206 38.2792 33.8604 38.3625C33.8001 38.4413 33.77 38.534 33.77 38.6405C33.77 38.7656 33.821 38.8675 33.9229 38.9463C34.0248 39.0204 34.1592 39.0806 34.3259 39.1269C34.4927 39.1733 34.6757 39.2196 34.8749 39.2659C35.0788 39.3122 35.2803 39.3655 35.4795 39.4257C35.6833 39.486 35.8686 39.567 36.0354 39.669C36.2022 39.7709 36.3365 39.9052 36.4384 40.072C36.545 40.2388 36.5983 40.4496 36.5983 40.7044C36.5983 40.9777 36.5218 41.2279 36.369 41.4549C36.2161 41.6819 35.9868 41.8648 35.681 42.0038C35.3799 42.1428 34.9977 42.2123 34.5344 42.2123ZM37.3605 42.1289V38.3903H38.4446V42.1289H37.3605ZM37.9026 37.8692C37.7034 37.8692 37.5412 37.8113 37.4161 37.6954C37.2911 37.5796 37.2285 37.436 37.2285 37.2646C37.2285 37.0932 37.2911 36.9496 37.4161 36.8338C37.5412 36.7179 37.7034 36.66 37.9026 36.66C38.1018 36.66 38.2639 36.7156 38.389 36.8268C38.5141 36.9334 38.5766 37.0723 38.5766 37.2438C38.5766 37.4244 38.5141 37.575 38.389 37.6954C38.2685 37.8113 38.1064 37.8692 37.9026 37.8692ZM44.308 38.3347C44.6045 38.3347 44.8663 38.395 45.0933 38.5154C45.3249 38.6312 45.5056 38.8119 45.6353 39.0574C45.7696 39.2983 45.8368 39.6087 45.8368 39.9886V42.1289H44.7528V40.1554C44.7528 39.8543 44.6902 39.6319 44.5651 39.4883C44.4401 39.3447 44.264 39.2729 44.037 39.2729C43.8795 39.2729 43.7382 39.3099 43.6131 39.384C43.488 39.4535 43.3908 39.5601 43.3213 39.7037C43.2518 39.8473 43.217 40.0303 43.217 40.2527V42.1289H42.133V40.1554C42.133 39.8543 42.0704 39.6319 41.9454 39.4883C41.8249 39.3447 41.6512 39.2729 41.4242 39.2729C41.2667 39.2729 41.1254 39.3099 41.0003 39.384C40.8752 39.4535 40.7779 39.5601 40.7084 39.7037C40.639 39.8473 40.6042 40.0303 40.6042 40.2527V42.1289H39.5202V38.3903H40.5556V39.4118L40.361 39.113C40.4907 38.8582 40.6737 38.666 40.91 38.5363C41.1509 38.4019 41.4242 38.3347 41.7299 38.3347C42.0728 38.3347 42.3716 38.4228 42.6264 38.5988C42.8858 38.7702 43.0572 39.0343 43.1406 39.391L42.7584 39.2868C42.8835 38.9949 43.0827 38.7633 43.356 38.5919C43.634 38.4205 43.9513 38.3347 44.308 38.3347ZM49.0877 42.1845C48.7727 42.1845 48.4971 42.115 48.2608 41.976C48.0245 41.837 47.8392 41.6263 47.7049 41.3437C47.5752 41.0564 47.5103 40.6951 47.5103 40.2596C47.5103 39.8195 47.5729 39.4582 47.6979 39.1756C47.823 38.893 48.0037 38.6822 48.24 38.5432C48.4762 38.4042 48.7588 38.3347 49.0877 38.3347C49.4398 38.3347 49.7549 38.4158 50.0328 38.578C50.3154 38.7355 50.5378 38.9578 50.6999 39.2451C50.8667 39.5323 50.9501 39.8705 50.9501 40.2596C50.9501 40.6534 50.8667 40.9939 50.6999 41.2811C50.5378 41.5684 50.3154 41.7907 50.0328 41.9482C49.7549 42.1057 49.4398 42.1845 49.0877 42.1845ZM46.878 43.477V38.3903H47.9134V39.1547L47.8925 40.2666L47.962 41.3715V43.477H46.878ZM48.9001 41.295C49.0808 41.295 49.2406 41.2533 49.3796 41.1699C49.5232 41.0866 49.6367 40.9684 49.7201 40.8155C49.8081 40.658 49.8521 40.4727 49.8521 40.2596C49.8521 40.0419 49.8081 39.8566 49.7201 39.7037C49.6367 39.5508 49.5232 39.4327 49.3796 39.3493C49.2406 39.2659 49.0808 39.2242 48.9001 39.2242C48.7194 39.2242 48.5573 39.2659 48.4137 39.3493C48.2701 39.4327 48.1566 39.5508 48.0732 39.7037C47.9898 39.8566 47.9481 40.0419 47.9481 40.2596C47.9481 40.4727 47.9898 40.658 48.0732 40.8155C48.1566 40.9684 48.2701 41.0866 48.4137 41.1699C48.5573 41.2533 48.7194 41.295 48.9001 41.295ZM51.7453 42.1289V36.9727H52.8293V42.1289H51.7453ZM53.9049 42.1289V38.3903H54.9889V42.1289H53.9049ZM54.4469 37.8692C54.2477 37.8692 54.0855 37.8113 53.9605 37.6954C53.8354 37.5796 53.7728 37.436 53.7728 37.2646C53.7728 37.0932 53.8354 36.9496 53.9605 36.8338C54.0855 36.7179 54.2477 36.66 54.4469 36.66C54.6461 36.66 54.8082 36.7156 54.9333 36.8268C55.0584 36.9334 55.1209 37.0723 55.1209 37.2438C55.1209 37.4244 55.0584 37.575 54.9333 37.6954C54.8129 37.8113 54.6507 37.8692 54.4469 37.8692ZM56.1965 42.1289V38.307C56.1965 37.8854 56.3216 37.5495 56.5718 37.2993C56.8219 37.0446 57.1787 36.9172 57.6419 36.9172C57.7994 36.9172 57.95 36.9334 58.0936 36.9658C58.2418 36.9982 58.3669 37.0492 58.4688 37.1187L58.1839 37.9039C58.1237 37.8622 58.0565 37.8298 57.9824 37.8066C57.9083 37.7835 57.8295 37.7719 57.7462 37.7719C57.5886 37.7719 57.4659 37.8182 57.3779 37.9109C57.2945 37.9989 57.2528 38.1332 57.2528 38.3139V38.6614L57.2806 39.1269V42.1289H56.1965ZM55.6198 39.3076V38.4737H58.2117V39.3076H55.6198ZM59.3617 43.5326C59.1671 43.5326 58.9749 43.5025 58.7849 43.4423C58.595 43.382 58.4398 43.2987 58.3193 43.1921L58.7154 42.4208C58.7988 42.4949 58.8938 42.5528 59.0003 42.5945C59.1115 42.6362 59.2204 42.657 59.3269 42.657C59.4798 42.657 59.6003 42.62 59.6883 42.5458C59.7809 42.4764 59.8643 42.3582 59.9385 42.1914L60.133 41.7328L60.2164 41.6147L61.5576 38.3903H62.5999L60.9113 42.3582C60.7909 42.6593 60.6519 42.8956 60.4944 43.067C60.3415 43.2384 60.1701 43.3589 59.9801 43.4284C59.7948 43.4979 59.5887 43.5326 59.3617 43.5326ZM60.001 42.2748L58.3332 38.3903H59.452L60.7445 41.5174L60.001 42.2748ZM63.1118 42.1289V38.3903H64.1958V42.1289H63.1118ZM63.6538 37.8692C63.4546 37.8692 63.2924 37.8113 63.1674 37.6954C63.0423 37.5796 62.9797 37.436 62.9797 37.2646C62.9797 37.0932 63.0423 36.9496 63.1674 36.8338C63.2924 36.7179 63.4546 36.66 63.6538 36.66C63.853 36.66 64.0151 36.7156 64.1402 36.8268C64.2653 36.9334 64.3278 37.0723 64.3278 37.2438C64.3278 37.4244 64.2653 37.575 64.1402 37.6954C64.0198 37.8113 63.8576 37.8692 63.6538 37.8692ZM67.5437 38.3347C67.8402 38.3347 68.1043 38.395 68.3359 38.5154C68.5722 38.6312 68.7575 38.8119 68.8918 39.0574C69.0262 39.2983 69.0933 39.6087 69.0933 39.9886V42.1289H68.0093V40.1554C68.0093 39.8543 67.9421 39.6319 67.8078 39.4883C67.6781 39.3447 67.4927 39.2729 67.2518 39.2729C67.0804 39.2729 66.9252 39.3099 66.7863 39.384C66.6519 39.4535 66.5454 39.5624 66.4666 39.7107C66.3925 39.8589 66.3554 40.0488 66.3554 40.2805V42.1289H65.2714V38.3903H66.3068V39.4257L66.1122 39.113C66.2466 38.8629 66.4388 38.6706 66.689 38.5363C66.9391 38.4019 67.2241 38.3347 67.5437 38.3347ZM71.9307 43.5326C71.5786 43.5326 71.2381 43.4886 70.9092 43.4006C70.5849 43.3172 70.3139 43.1898 70.0962 43.0184L70.527 42.2401C70.6845 42.3698 70.8837 42.4717 71.1246 42.5458C71.3701 42.6246 71.611 42.664 71.8473 42.664C72.2318 42.664 72.5098 42.5783 72.6812 42.4069C72.8572 42.2355 72.9453 41.9807 72.9453 41.6425V41.0796L73.0147 40.1415L73.0008 39.1964V38.3903H74.0293V41.5035C74.0293 42.1984 73.8486 42.7103 73.4873 43.0392C73.1259 43.3681 72.6071 43.5326 71.9307 43.5326ZM71.7639 41.9482C71.4165 41.9482 71.1015 41.8741 70.8189 41.7259C70.5409 41.573 70.3162 41.3622 70.1448 41.0935C69.978 40.8202 69.8946 40.5028 69.8946 40.1415C69.8946 39.7755 69.978 39.4582 70.1448 39.1895C70.3162 38.9161 70.5409 38.7054 70.8189 38.5571C71.1015 38.4089 71.4165 38.3347 71.7639 38.3347C72.0789 38.3347 72.3569 38.3996 72.5978 38.5293C72.8387 38.6544 73.0263 38.8513 73.1607 39.12C73.295 39.384 73.3622 39.7246 73.3622 40.1415C73.3622 40.5538 73.295 40.8943 73.1607 41.163C73.0263 41.4271 72.8387 41.6239 72.5978 41.7537C72.3569 41.8834 72.0789 41.9482 71.7639 41.9482ZM71.9793 41.0588C72.1693 41.0588 72.3384 41.0217 72.4866 40.9476C72.6349 40.8688 72.7507 40.76 72.8341 40.621C72.9175 40.482 72.9592 40.3222 72.9592 40.1415C72.9592 39.9562 72.9175 39.7964 72.8341 39.662C72.7507 39.523 72.6349 39.4165 72.4866 39.3424C72.3384 39.2636 72.1693 39.2242 71.9793 39.2242C71.7894 39.2242 71.6203 39.2636 71.4721 39.3424C71.3238 39.4165 71.2057 39.523 71.1177 39.662C71.0343 39.7964 70.9926 39.9562 70.9926 40.1415C70.9926 40.3222 71.0343 40.482 71.1177 40.621C71.2057 40.76 71.3238 40.8688 71.4721 40.9476C71.6203 41.0217 71.7894 41.0588 71.9793 41.0588ZM77.2217 42.1289V37.2646H79.5982C80.2097 37.2646 80.6684 37.3804 80.9741 37.6121C81.2845 37.8437 81.4397 38.1494 81.4397 38.5293C81.4397 38.7841 81.3772 39.0065 81.2521 39.1964C81.127 39.3817 80.9556 39.5253 80.7379 39.6273C80.5201 39.7292 80.27 39.7801 79.9874 39.7801L80.1194 39.4952C80.4252 39.4952 80.6962 39.5462 80.9324 39.6481C81.1687 39.7454 81.3517 39.8913 81.4814 40.0859C81.6157 40.2805 81.6829 40.5191 81.6829 40.8016C81.6829 41.2186 81.5185 41.5452 81.1895 41.7815C80.8606 42.0131 80.3765 42.1289 79.7372 42.1289H77.2217ZM78.3405 41.2811H79.6538C79.9457 41.2811 80.1657 41.2348 80.314 41.1421C80.4668 41.0449 80.5433 40.892 80.5433 40.6835C80.5433 40.4797 80.4668 40.3291 80.314 40.2318C80.1657 40.1299 79.9457 40.0789 79.6538 40.0789H78.2571V39.259H79.4592C79.7326 39.259 79.941 39.2126 80.0847 39.12C80.2329 39.0227 80.307 38.8768 80.307 38.6822C80.307 38.4923 80.2329 38.351 80.0847 38.2583C79.941 38.161 79.7326 38.1124 79.4592 38.1124H78.3405V41.2811ZM84.1057 42.1845C83.7953 42.1845 83.5173 42.1243 83.2718 42.0038C83.0309 41.8834 82.8433 41.7004 82.7089 41.4549C82.5746 41.2047 82.5074 40.8874 82.5074 40.5028V38.3903H83.5915V40.343C83.5915 40.6534 83.6563 40.8827 83.786 41.031C83.9204 41.1746 84.108 41.2464 84.3489 41.2464C84.5157 41.2464 84.6639 41.2116 84.7936 41.1421C84.9234 41.068 85.0253 40.9568 85.0994 40.8086C85.1735 40.6557 85.2106 40.4658 85.2106 40.2388V38.3903H86.2946V42.1289H85.2662V41.1005L85.4538 41.3993C85.3287 41.6587 85.1434 41.8556 84.8979 41.9899C84.657 42.1196 84.3929 42.1845 84.1057 42.1845ZM88.6262 42.1845C88.3065 42.1845 87.9984 42.1474 87.702 42.0733C87.4101 41.9946 87.1785 41.8973 87.0071 41.7815L87.3684 41.0032C87.5398 41.1097 87.7413 41.1977 87.973 41.2672C88.2092 41.3321 88.4409 41.3645 88.6679 41.3645C88.918 41.3645 89.0941 41.3344 89.196 41.2742C89.3025 41.214 89.3558 41.1306 89.3558 41.024C89.3558 40.936 89.3141 40.8711 89.2307 40.8294C89.152 40.7831 89.0454 40.7484 88.9111 40.7252C88.7767 40.702 88.6285 40.6789 88.4663 40.6557C88.3088 40.6326 88.149 40.6024 87.9869 40.5654C87.8247 40.5237 87.6765 40.4635 87.5421 40.3847C87.4078 40.306 87.2989 40.1994 87.2155 40.0651C87.1368 39.9307 87.0974 39.757 87.0974 39.5439C87.0974 39.3076 87.1646 39.0991 87.2989 38.9185C87.4379 38.7378 87.6371 38.5965 87.8965 38.4946C88.156 38.388 88.4663 38.3347 88.8277 38.3347C89.0825 38.3347 89.3419 38.3625 89.606 38.4181C89.87 38.4737 90.0901 38.5548 90.2661 38.6614L89.9048 39.4327C89.7241 39.3261 89.5411 39.2543 89.3558 39.2173C89.1751 39.1756 88.9991 39.1547 88.8277 39.1547C88.5868 39.1547 88.4108 39.1872 88.2996 39.252C88.1884 39.3169 88.1328 39.4003 88.1328 39.5022C88.1328 39.5948 88.1722 39.6643 88.2509 39.7107C88.3343 39.757 88.4432 39.794 88.5775 39.8218C88.7119 39.8496 88.8578 39.8751 89.0153 39.8983C89.1775 39.9168 89.3396 39.9469 89.5017 39.9886C89.6639 40.0303 89.8098 40.0905 89.9395 40.1693C90.0739 40.2434 90.1827 40.3476 90.2661 40.482C90.3495 40.6117 90.3912 40.7831 90.3912 40.9962C90.3912 41.2279 90.3217 41.434 90.1827 41.6147C90.0438 41.7907 89.8422 41.9297 89.5782 42.0316C89.3188 42.1335 89.0014 42.1845 88.6262 42.1845ZM91.1296 42.1289V38.3903H92.2136V42.1289H91.1296ZM91.6716 37.8692C91.4724 37.8692 91.3102 37.8113 91.1851 37.6954C91.0601 37.5796 90.9975 37.436 90.9975 37.2646C90.9975 37.0932 91.0601 36.9496 91.1851 36.8338C91.3102 36.7179 91.4724 36.66 91.6716 36.66C91.8708 36.66 92.0329 36.7156 92.158 36.8268C92.2831 36.9334 92.3456 37.0723 92.3456 37.2438C92.3456 37.4244 92.2831 37.575 92.158 37.6954C92.0376 37.8113 91.8754 37.8692 91.6716 37.8692ZM95.5615 38.3347C95.858 38.3347 96.1221 38.395 96.3537 38.5154C96.59 38.6312 96.7753 38.8119 96.9096 39.0574C97.044 39.2983 97.1111 39.6087 97.1111 39.9886V42.1289H96.0271V40.1554C96.0271 39.8543 95.9599 39.6319 95.8256 39.4883C95.6958 39.3447 95.5105 39.2729 95.2696 39.2729C95.0982 39.2729 94.943 39.3099 94.8041 39.384C94.6697 39.4535 94.5632 39.5624 94.4844 39.7107C94.4103 39.8589 94.3732 40.0488 94.3732 40.2805V42.1289H93.2892V38.3903H94.3246V39.4257L94.13 39.113C94.2644 38.8629 94.4566 38.6706 94.7068 38.5363C94.9569 38.4019 95.2418 38.3347 95.5615 38.3347ZM100.046 42.1845C99.6196 42.1845 99.2443 42.1011 98.92 41.9343C98.6004 41.7676 98.3525 41.5406 98.1765 41.2533C98.0005 40.9615 97.9124 40.6302 97.9124 40.2596C97.9124 39.8844 97.9981 39.5531 98.1695 39.2659C98.3456 38.9741 98.5842 38.7471 98.8853 38.5849C99.1864 38.4181 99.5269 38.3347 99.9068 38.3347C100.273 38.3347 100.602 38.4135 100.894 38.571C101.19 38.7239 101.424 38.9463 101.595 39.2381C101.767 39.5253 101.853 39.8705 101.853 40.2735C101.853 40.3152 101.85 40.3639 101.846 40.4195C101.841 40.4704 101.836 40.5191 101.832 40.5654H98.795V39.933H101.262L100.845 40.1206C100.845 39.9261 100.806 39.757 100.727 39.6134C100.648 39.4698 100.539 39.3586 100.4 39.2798C100.261 39.1964 100.099 39.1547 99.9137 39.1547C99.7284 39.1547 99.564 39.1964 99.4204 39.2798C99.2814 39.3586 99.1725 39.4721 99.0938 39.6203C99.015 39.7639 98.9756 39.9353 98.9756 40.1345V40.3013C98.9756 40.5052 99.0196 40.6858 99.1077 40.8433C99.2003 40.9962 99.3277 41.1144 99.4899 41.1977C99.6566 41.2765 99.8512 41.3159 100.074 41.3159C100.273 41.3159 100.447 41.2858 100.595 41.2255C100.748 41.1653 100.887 41.075 101.012 40.9545L101.588 41.5799C101.417 41.7745 101.202 41.9251 100.942 42.0316C100.683 42.1335 100.384 42.1845 100.046 42.1845ZM103.901 42.1845C103.582 42.1845 103.274 42.1474 102.977 42.0733C102.685 41.9946 102.454 41.8973 102.282 41.7815L102.644 41.0032C102.815 41.1097 103.017 41.1977 103.248 41.2672C103.485 41.3321 103.716 41.3645 103.943 41.3645C104.193 41.3645 104.369 41.3344 104.471 41.2742C104.578 41.214 104.631 41.1306 104.631 41.024C104.631 40.936 104.589 40.8711 104.506 40.8294C104.427 40.7831 104.321 40.7484 104.186 40.7252C104.052 40.702 103.904 40.6789 103.742 40.6557C103.584 40.6326 103.424 40.6024 103.262 40.5654C103.1 40.5237 102.952 40.4635 102.817 40.3847C102.683 40.306 102.574 40.1994 102.491 40.0651C102.412 39.9307 102.373 39.757 102.373 39.5439C102.373 39.3076 102.44 39.0991 102.574 38.9185C102.713 38.7378 102.912 38.5965 103.172 38.4946C103.431 38.388 103.742 38.3347 104.103 38.3347C104.358 38.3347 104.617 38.3625 104.881 38.4181C105.145 38.4737 105.365 38.5548 105.541 38.6614L105.18 39.4327C104.999 39.3261 104.816 39.2543 104.631 39.2173C104.45 39.1756 104.274 39.1547 104.103 39.1547C103.862 39.1547 103.686 39.1872 103.575 39.252C103.464 39.3169 103.408 39.4003 103.408 39.5022C103.408 39.5948 103.447 39.6643 103.526 39.7107C103.61 39.757 103.719 39.794 103.853 39.8218C103.987 39.8496 104.133 39.8751 104.291 39.8983C104.453 39.9168 104.615 39.9469 104.777 39.9886C104.939 40.0303 105.085 40.0905 105.215 40.1693C105.349 40.2434 105.458 40.3476 105.541 40.482C105.625 40.6117 105.667 40.7831 105.667 40.9962C105.667 41.2279 105.597 41.434 105.458 41.6147C105.319 41.7907 105.118 41.9297 104.854 42.0316C104.594 42.1335 104.277 42.1845 103.901 42.1845ZM107.663 42.1845C107.343 42.1845 107.035 42.1474 106.738 42.0733C106.447 41.9946 106.215 41.8973 106.044 41.7815L106.405 41.0032C106.576 41.1097 106.778 41.1977 107.009 41.2672C107.246 41.3321 107.477 41.3645 107.704 41.3645C107.955 41.3645 108.131 41.3344 108.232 41.2742C108.339 41.214 108.392 41.1306 108.392 41.024C108.392 40.936 108.351 40.8711 108.267 40.8294C108.188 40.7831 108.082 40.7484 107.948 40.7252C107.813 40.702 107.665 40.6789 107.503 40.6557C107.345 40.6326 107.185 40.6024 107.023 40.5654C106.861 40.5237 106.713 40.4635 106.579 40.3847C106.444 40.306 106.335 40.1994 106.252 40.0651C106.173 39.9307 106.134 39.757 106.134 39.5439C106.134 39.3076 106.201 39.0991 106.335 38.9185C106.474 38.7378 106.674 38.5965 106.933 38.4946C107.192 38.388 107.503 38.3347 107.864 38.3347C108.119 38.3347 108.378 38.3625 108.642 38.4181C108.907 38.4737 109.127 38.5548 109.303 38.6614L108.941 39.4327C108.761 39.3261 108.578 39.2543 108.392 39.2173C108.212 39.1756 108.036 39.1547 107.864 39.1547C107.623 39.1547 107.447 39.1872 107.336 39.252C107.225 39.3169 107.169 39.4003 107.169 39.5022C107.169 39.5948 107.209 39.6643 107.287 39.7107C107.371 39.757 107.48 39.794 107.614 39.8218C107.748 39.8496 107.894 39.8751 108.052 39.8983C108.214 39.9168 108.376 39.9469 108.538 39.9886C108.7 40.0303 108.846 40.0905 108.976 40.1693C109.11 40.2434 109.219 40.3476 109.303 40.482C109.386 40.6117 109.428 40.7831 109.428 40.9962C109.428 41.2279 109.358 41.434 109.219 41.6147C109.08 41.7907 108.879 41.9297 108.615 42.0316C108.355 42.1335 108.038 42.1845 107.663 42.1845Z" fill="white"/>
<defs>
<clipPath id="clip0_16989_76863">
<rect x="0.328125" y="25.8867" width="19.1083" height="19.1083" rx="9.55414" fill="white"/>
</clipPath>
</defs>
</svg>
