<svg width="64" height="64" viewBox="0 0 64 64" fill="none" xmlns="http://www.w3.org/2000/svg">
<g filter="url(#filter0_d_16551_67940)">
<rect x="10" y="10" width="44" height="44" rx="22" fill="url(#paint0_linear_16551_67940)" shape-rendering="crispEdges"/>
<path d="M36.1435 23.948C36.2904 23.7272 36.5189 23.5738 36.7788 23.5215C37.0387 23.4692 37.3087 23.5222 37.5295 23.669C38.9048 24.5807 40.0329 25.819 40.8129 27.2731C41.5929 28.7272 42.0006 30.3519 41.9995 32.002C41.9995 37.525 37.5225 42.002 31.9995 42.002C26.4765 42.002 21.9995 37.525 21.9995 32.002C21.9984 30.3519 22.4061 28.7272 23.1861 27.2731C23.9661 25.819 25.0942 24.5807 26.4695 23.669C26.6904 23.5222 26.9606 23.4691 27.2206 23.5215C27.4807 23.574 27.7092 23.7275 27.856 23.9485C28.0028 24.1694 28.0558 24.4396 28.0034 24.6996C27.951 24.9596 27.7974 25.1882 27.5765 25.335C26.1446 26.2851 25.0566 27.671 24.4737 29.2877C23.8909 30.9043 23.8441 32.6656 24.3402 34.3109C24.8364 35.9562 25.8492 37.398 27.2287 38.4229C28.6082 39.4477 30.281 40.0011 31.9995 40.0011C33.718 40.0011 35.3908 39.4477 36.7703 38.4229C38.1498 37.398 39.1626 35.9562 39.6588 34.3109C40.155 32.6656 40.1082 30.9043 39.5253 29.2877C38.9424 27.671 37.8545 26.2851 36.4225 25.335C36.313 25.2623 36.2189 25.1688 36.1455 25.0598C36.0722 24.9507 36.021 24.8283 35.995 24.6995C35.969 24.5707 35.9687 24.438 35.994 24.309C36.0193 24.1801 36.0708 24.0574 36.1435 23.948ZM31.9995 22.002C32.2444 22.002 32.4808 22.0919 32.6639 22.2547C32.8469 22.4174 32.9639 22.6417 32.9925 22.885L32.9995 23.002V33.002C32.9992 33.2568 32.9016 33.502 32.7267 33.6873C32.5517 33.8727 32.3126 33.9842 32.0581 33.9991C31.8037 34.0141 31.5531 33.9313 31.3577 33.7677C31.1622 33.6041 31.0366 33.372 31.0065 33.119L30.9995 33.002V23.002C30.9995 22.7367 31.1049 22.4824 31.2924 22.2948C31.4799 22.1073 31.7343 22.002 31.9995 22.002Z" fill="white"/>
</g>
<defs>
<filter id="filter0_d_16551_67940" x="0" y="0" width="64" height="64" filterUnits="userSpaceOnUse" color-interpolation-filters="sRGB">
<feFlood flood-opacity="0" result="BackgroundImageFix"/>
<feColorMatrix in="SourceAlpha" type="matrix" values="0 0 0 0 0 0 0 0 0 0 0 0 0 0 0 0 0 0 127 0" result="hardAlpha"/>
<feOffset/>
<feGaussianBlur stdDeviation="5"/>
<feComposite in2="hardAlpha" operator="out"/>
<feColorMatrix type="matrix" values="0 0 0 0 0 0 0 0 0 0 0 0 0 0 0 0 0 0 0.15 0"/>
<feBlend mode="normal" in2="BackgroundImageFix" result="effect1_dropShadow_16551_67940"/>
<feBlend mode="normal" in="SourceGraphic" in2="effect1_dropShadow_16551_67940" result="shape"/>
</filter>
<linearGradient id="paint0_linear_16551_67940" x1="10" y1="32" x2="54" y2="32" gradientUnits="userSpaceOnUse">
<stop stop-color="#254AAD"/>
<stop offset="1" stop-color="#24ADAD"/>
</linearGradient>
</defs>
</svg>
