<svg width="30" height="30" viewBox="0 0 30 30" fill="none" xmlns="http://www.w3.org/2000/svg">
<path d="M20.4922 4.62891C21.4938 4.04584 22.749 4.76837 22.749 5.92578V11H23.749C24.1102 11 24.4681 11.0708 24.8018 11.209C25.1352 11.3471 25.4381 11.5495 25.6934 11.8047C25.9487 12.06 26.1518 12.3636 26.29 12.6973C26.4282 13.0308 26.499 13.3889 26.499 13.75C26.499 14.1109 26.4281 14.4683 26.29 14.8018C26.1518 15.1354 25.9487 15.439 25.6934 15.6943C25.4381 15.9495 25.1352 16.1519 24.8018 16.29C24.4681 16.4282 24.1102 16.5 23.749 16.5H22.749V21.25C22.7487 22.4858 21.338 23.191 20.3486 22.4492L17.7744 20.5176L17.7734 20.5166C16.2699 19.3895 14.5194 18.637 12.667 18.3213L11.499 18.1221V22.8623C11.4991 23.4382 11.291 23.9951 10.9131 24.4297C10.5352 24.8642 10.0127 25.1467 9.44238 25.2266C8.872 25.3064 8.2923 25.1774 7.80957 24.8633C7.38719 24.5884 7.0638 24.1885 6.88379 23.7217L6.81543 23.5176L4.85352 16.6475L4.79395 16.4404L4.6543 16.2754C4.06848 15.5834 3.68754 14.7415 3.55371 13.8447C3.41992 12.9479 3.5381 12.0312 3.89648 11.1982C4.25486 10.3654 4.83894 9.64932 5.58203 9.12988C6.23238 8.67534 6.98271 8.38767 7.7666 8.28906L8.10449 8.25781L11.877 8.04785C13.8809 7.93654 15.8301 7.3515 17.5635 6.33984L20.4922 4.62891ZM22.749 16H23.749C24.3456 16 24.9179 15.7626 25.3398 15.3408C25.7617 14.919 25.9989 14.3466 25.999 13.75C25.999 13.1533 25.7618 12.5802 25.3398 12.1582C24.9179 11.7364 24.3456 11.5 23.749 11.5H22.749V16ZM10.999 18.1533L10.0547 18.1016L8.1084 17.9922H8.10938C7.82446 17.975 7.54104 17.9353 7.2627 17.8721L5.61621 17.498L6.08008 19.1221L7.2959 23.3799C7.4205 23.8179 7.69956 24.1957 8.08105 24.4443C8.46286 24.6931 8.92172 24.7956 9.37305 24.7324C9.8244 24.6692 10.2373 24.4447 10.5361 24.1006C10.7977 23.7994 10.9562 23.4247 10.9912 23.0303L10.999 22.8604V18.1533Z" stroke="white" stroke-width="2"/>
</svg>
