<svg width="54" height="54" viewBox="0 0 54 54" fill="none" xmlns="http://www.w3.org/2000/svg">
<g filter="url(#filter0_d_16551_67933)">
<rect x="5" y="4" width="44" height="44" rx="22" fill="url(#paint0_linear_16551_67933)" shape-rendering="crispEdges"/>
<path d="M21.1797 33.5898C21.2022 33.6091 21.2245 33.6284 21.248 33.6465C21.2245 33.6284 21.2022 33.609 21.1797 33.5898ZM20.7549 33.0459C20.7922 33.1219 20.8358 33.1943 20.8838 33.2637C20.8358 33.1943 20.7923 33.1218 20.7549 33.0459ZM23.999 32.291C23.999 32.4046 23.9869 32.517 23.9648 32.627C23.9869 32.5167 23.9991 32.404 23.999 32.29V32.291ZM31.4941 17.8779C32.1623 17.4888 32.9989 17.9698 32.999 18.7412V31C32.999 31.7727 32.1723 32.2351 31.5254 31.8818L31.3994 31.8008L29.3398 30.2549L29.3389 30.2539C28.1106 29.3331 26.6803 28.7188 25.167 28.4609L23.999 28.2617V28.335L23.0547 28.2822L21.498 28.1953H21.499C21.2821 28.1822 21.0665 28.1516 20.8545 28.1035L19.208 27.7295L19.0752 27.2637L19.0156 27.0566L18.876 26.8926L18.7168 26.6904C18.362 26.2069 18.1299 25.6426 18.041 25.0469C17.9395 24.3664 18.0289 23.6711 18.3008 23.0391C18.5728 22.407 19.0161 21.863 19.5801 21.4688C20.1442 21.0745 20.8079 20.8448 21.4951 20.8066L24.5127 20.6387C26.1474 20.5479 27.7373 20.0704 29.1514 19.2451L31.4932 17.877L31.4941 17.8779ZM35.21 26.5889C35.1764 26.6144 35.1435 26.6407 35.1084 26.6641C35.1434 26.6407 35.1764 26.6145 35.21 26.5889ZM35.9805 25.2549C35.9745 25.301 35.9691 25.347 35.96 25.3926C35.9691 25.3471 35.9745 25.301 35.9805 25.2549ZM35.9287 24.4824C35.974 24.651 35.999 24.8247 35.999 25C35.999 24.8235 35.9737 24.65 35.9287 24.4824ZM34.7646 23.1523C34.9075 23.2115 35.0411 23.289 35.166 23.3789C35.0404 23.2885 34.9067 23.2112 34.7646 23.1523ZM33.999 27C34.1118 27 34.2233 26.9883 34.333 26.9697C34.2228 26.9884 34.1113 27 33.999 27Z" stroke="white" stroke-width="2"/>
</g>
<defs>
<filter id="filter0_d_16551_67933" x="0" y="0" width="54" height="54" filterUnits="userSpaceOnUse" color-interpolation-filters="sRGB">
<feFlood flood-opacity="0" result="BackgroundImageFix"/>
<feColorMatrix in="SourceAlpha" type="matrix" values="0 0 0 0 0 0 0 0 0 0 0 0 0 0 0 0 0 0 127 0" result="hardAlpha"/>
<feOffset dy="1"/>
<feGaussianBlur stdDeviation="2.5"/>
<feComposite in2="hardAlpha" operator="out"/>
<feColorMatrix type="matrix" values="0 0 0 0 0 0 0 0 0 0 0 0 0 0 0 0 0 0 0.25 0"/>
<feBlend mode="normal" in2="BackgroundImageFix" result="effect1_dropShadow_16551_67933"/>
<feBlend mode="normal" in="SourceGraphic" in2="effect1_dropShadow_16551_67933" result="shape"/>
</filter>
<linearGradient id="paint0_linear_16551_67933" x1="5" y1="26" x2="49" y2="26" gradientUnits="userSpaceOnUse">
<stop stop-color="#254AAD"/>
<stop offset="1" stop-color="#24ADAD"/>
</linearGradient>
</defs>
</svg>
