<svg width="30" height="30" viewBox="0 0 30 30" fill="none" xmlns="http://www.w3.org/2000/svg">
<path d="M20.18 4.93445C20.3636 4.65854 20.6492 4.46681 20.9741 4.40141C21.2989 4.33602 21.6365 4.4023 21.9125 4.5857C23.6317 5.72541 25.0417 7.27322 26.0167 9.09085C26.9918 10.9085 27.5014 12.9393 27.5 15.002C27.5 21.9057 21.9038 27.502 15 27.502C8.09625 27.502 2.5 21.9057 2.5 15.002C2.49865 12.9393 3.00824 10.9085 3.98326 9.09085C4.95828 7.27322 6.36835 5.72541 8.0875 4.5857C8.36366 4.40221 8.7014 4.33593 9.02642 4.40145C9.35145 4.46697 9.63713 4.65892 9.82063 4.93508C10.0041 5.21124 10.0704 5.54897 10.0049 5.874C9.93936 6.19902 9.74741 6.48471 9.47125 6.6682C7.6813 7.85585 6.32136 9.58831 5.59277 11.6091C4.86418 13.6299 4.80567 15.8316 5.42591 17.8882C6.04615 19.9448 7.31216 21.7471 9.03651 23.0281C10.7609 24.3091 12.8519 25.0008 15 25.0008C17.1481 25.0008 19.2391 24.3091 20.9635 23.0281C22.6878 21.7471 23.9539 19.9448 24.5741 17.8882C25.1943 15.8316 25.1358 13.6299 24.4072 11.6091C23.6786 9.58831 22.3187 7.85585 20.5288 6.6682C20.3919 6.57741 20.2742 6.46052 20.1825 6.32422C20.0908 6.18792 20.0269 6.03489 19.9944 5.87387C19.9619 5.71285 19.9615 5.54701 19.9931 5.38582C20.0247 5.22462 20.0891 5.07125 20.18 4.93445ZM15 2.50195C15.3062 2.50199 15.6017 2.6144 15.8305 2.81785C16.0593 3.0213 16.2054 3.30164 16.2413 3.6057L16.25 3.75195V16.252C16.2496 16.5706 16.1277 16.877 15.9089 17.1087C15.6902 17.3403 15.3913 17.4797 15.0733 17.4984C14.7552 17.5171 14.442 17.4136 14.1977 17.2091C13.9534 17.0046 13.7964 16.7146 13.7588 16.3982L13.75 16.252V3.75195C13.75 3.42043 13.8817 3.10249 14.1161 2.86807C14.3505 2.63365 14.6685 2.50195 15 2.50195Z" fill="white"/>
</svg>
