<svg width="24" height="24" viewBox="0 0 24 24" fill="none" xmlns="http://www.w3.org/2000/svg">
<g clip-path="url(#clip0_17054_70245)">
<path d="M14.6636 5.15115C14.7215 5.55334 14.3867 5.88441 13.9804 5.88441C13.574 5.88441 13.2521 5.55179 13.1713 5.15356C13.0287 4.45023 12.6822 3.79825 12.1672 3.28325C11.4773 2.59338 10.5417 2.20581 9.56605 2.20581C8.59043 2.20581 7.65476 2.59338 6.96489 3.28325C6.44989 3.79825 6.10336 4.45023 5.96077 5.15356C5.88004 5.55179 5.55806 5.88441 5.15173 5.88441C4.74541 5.88441 4.41061 5.55334 4.46846 5.15115C4.62593 4.05637 5.13313 3.03408 5.92443 2.24279C6.89025 1.27697 8.20018 0.734375 9.56605 0.734375C10.9319 0.734375 12.2419 1.27697 13.2077 2.24279C13.999 3.03408 14.5062 4.05637 14.6636 5.15115Z" fill="white"/>
<path d="M18.3924 11.0349C18.3845 11.035 18.3765 11.035 18.3685 11.0351C17.7495 11.0442 17.0542 10.8749 16.5125 10.5752C16.1871 10.3951 15.8215 10.3002 15.4496 10.2992C14.8165 10.3015 14.1042 10.1294 13.5459 9.83093C13.4437 9.77629 13.3369 9.72951 13.2262 9.69127C12.542 9.45479 11.771 8.93691 11.771 8.21294V5.88489C11.771 5.29952 11.5384 4.73812 11.1245 4.3242C10.7106 3.91027 10.1492 3.67773 9.56381 3.67773C8.97844 3.67773 8.41704 3.91027 8.00312 4.3242C7.5892 4.73812 7.35666 5.29952 7.35666 5.88489V12.0659C7.35666 12.909 6.4127 13.408 5.716 12.9331C5.3399 12.653 4.88271 12.5032 4.41378 12.5064C3.97601 12.5053 3.54781 12.6344 3.18361 12.8773C2.81942 13.1202 2.53569 13.466 2.36849 13.8705C2.2013 14.2751 2.15819 14.7203 2.24465 15.1494C2.33111 15.5786 2.54324 15.9723 2.85405 16.2806L8.73981 21.6514C9.57308 22.3972 10.6527 22.8086 11.771 22.8064H15.4496C16.8154 22.8064 18.1254 22.2638 19.0912 21.298C20.057 20.3322 20.5996 19.0223 20.5996 17.6564V13.2421C20.5996 12.6567 20.3671 12.0953 19.9531 11.6814C19.5392 11.2675 18.9778 11.0349 18.3924 11.0349ZM19.1282 17.6564C19.1282 18.632 18.7406 19.5677 18.0507 20.2576C17.3609 20.9474 16.4252 21.335 15.4496 21.335H11.771C11.0273 21.344 10.3057 21.0825 9.74039 20.5993L3.89142 15.2285C3.7555 15.0915 3.67887 14.9065 3.67806 14.7135C3.67806 14.5769 3.71611 14.443 3.78794 14.3267C3.85977 14.2105 3.96255 14.1166 4.08475 14.0555C4.20696 13.9944 4.34377 13.9685 4.47985 13.9808C4.61593 13.993 4.7459 14.043 4.85521 14.125C6.53964 15.2791 8.82809 14.073 8.82809 12.0311V5.88489C8.82809 5.68977 8.90561 5.50263 9.04358 5.36466C9.18156 5.22669 9.36869 5.14917 9.56381 5.14917C9.75894 5.14917 9.94607 5.22669 10.084 5.36466C10.222 5.50263 10.2995 5.68977 10.2995 5.88489V13.2421C10.2995 13.6484 10.6289 13.9778 11.0353 13.9778C11.4416 13.9778 11.771 13.6484 11.771 13.2421V11.7706C11.771 11.5755 11.8485 11.3884 11.9865 11.2504C12.1244 11.1124 12.3116 11.0349 12.5067 11.0349C12.7018 11.0349 12.889 11.1124 13.0269 11.2504C13.1649 11.3884 13.2424 11.5755 13.2424 11.7706V13.2421C13.2424 13.6484 13.5718 13.9778 13.9781 13.9778C14.3845 13.9778 14.7139 13.6484 14.7139 13.2421V12.5064C14.7139 12.3112 14.7914 12.1241 14.9293 11.9861C15.0673 11.8482 15.2544 11.7706 15.4496 11.7706C15.6447 11.7706 15.8318 11.8482 15.9698 11.9861C16.1078 12.1241 16.1853 12.3112 16.1853 12.5064V13.2421C16.1853 13.6484 16.5147 13.9778 16.921 13.9778C17.3273 13.9778 17.6567 13.6484 17.6567 13.2421C17.6567 13.047 17.7342 12.8598 17.8722 12.7219C18.0102 12.5839 18.1973 12.5064 18.3924 12.5064C18.5876 12.5064 18.7747 12.5839 18.9127 12.7219C19.0507 12.8598 19.1282 13.047 19.1282 13.2421V17.6564Z" fill="white"/>
</g>
<defs>
<clipPath id="clip0_17054_70245">
<rect width="23.543" height="23.543" fill="white"/>
</clipPath>
</defs>
</svg>
