<svg width="29" height="31" viewBox="0 0 29 31" fill="none" xmlns="http://www.w3.org/2000/svg">
<path d="M17.75 5C16.25 4.49975 15.6161 4.10938 13.4773 4.10938C10.1018 4.10938 6.86456 5.45028 4.47773 7.83711C2.09091 10.2239 0.75 13.4612 0.75 16.8366C0.75 20.2121 2.09091 23.4494 4.47773 25.8362C6.86456 28.223 10.1018 29.5639 13.4773 29.5639C16.8528 29.5639 20.09 28.223 22.4768 25.8362C24.8636 23.4494 26.2045 20.2121 26.2045 16.8366C26.2045 15.5548 26.438 13.8759 25.75 12.5" stroke="#474747" stroke-width="1.5" stroke-linecap="round" stroke-linejoin="round"/>
<path d="M12.4453 9.61328V17.8688H17.949" stroke="#474747" stroke-width="1.5" stroke-linecap="round" stroke-linejoin="round"/>
<path d="M26.4951 9.87965L26.9741 5.01138L22.1332 4.06826" stroke="#474747" stroke-width="1.5" stroke-linecap="round" stroke-linejoin="round"/>
<path d="M24.0025 11.1713C24.2467 9.40743 24.3853 8.41536 24.6295 6.65146L19.7504 5.94641" stroke="#474747" stroke-width="1.5" stroke-linecap="round" stroke-linejoin="round"/>
</svg>
