<svg width="29" height="30" viewBox="0 0 29 30" fill="none" xmlns="http://www.w3.org/2000/svg">
<path d="M17.75 3.84375C16.25 3.3435 15.6161 2.95313 13.4773 2.95312C10.1018 2.95313 6.86456 4.29403 4.47773 6.68086C2.09091 9.06768 0.75 12.3049 0.75 15.6804C0.75 19.0559 2.09091 22.2931 4.47773 24.6799C6.86456 27.0668 10.1018 28.4077 13.4773 28.4077C16.8528 28.4077 20.09 27.0668 22.4768 24.6799C24.8636 22.2931 26.2045 19.0559 26.2045 15.6804C26.2045 14.3985 26.438 12.7197 25.75 11.3438" stroke="#474747" stroke-width="1.5" stroke-linecap="round" stroke-linejoin="round"/>
<path d="M12.4648 8.45703V16.7126H17.9685" stroke="#474747" stroke-width="1.5" stroke-linecap="round" stroke-linejoin="round"/>
<path d="M19.6925 3.59864L19.19 8.70236L24.2695 9.69109" stroke="#474747" stroke-width="1.5" stroke-linecap="round" stroke-linejoin="round"/>
<path d="M22.3086 2.24432C22.0523 4.09353 21.9069 5.13358 21.6506 6.98279L26.7702 7.72194" stroke="#474747" stroke-width="1.5" stroke-linecap="round" stroke-linejoin="round"/>
</svg>
