<svg width="30" height="29" viewBox="0 0 30 29" fill="none" xmlns="http://www.w3.org/2000/svg">
<path d="M19.5461 3.72563C17.6995 2.72392 15.6161 2.18555 13.4773 2.18555C10.1018 2.18555 6.86456 3.52645 4.47773 5.91328C2.09091 8.3001 0.75 11.5373 0.75 14.9128C0.75 18.2883 2.09091 21.5255 4.47773 23.9124C6.86456 26.2992 10.1018 27.6401 13.4773 27.6401C16.8528 27.6401 20.09 26.2992 22.4768 23.9124C24.8636 21.5255 26.2045 18.2883 26.2045 14.9128C26.2045 12.9496 25.751 11.0332 24.9018 9.30361" stroke="#474747" stroke-width="1.5" stroke-linecap="round" stroke-linejoin="round"/>
<path d="M12.4453 7.68945V15.945H17.949" stroke="#474747" stroke-width="1.5" stroke-linecap="round" stroke-linejoin="round"/>
<path d="M15.416 6.29181L17.8722 9.06309L18.5908 8.25219M25.2406 0.75L20.9858 5.55043M18.9248 6.29181L21.3809 9.06309L28.7493 0.75" stroke="#474747" stroke-width="1.5" stroke-linecap="round" stroke-linejoin="round"/>
</svg>
