<svg width="44" height="44" viewBox="0 0 44 44" fill="none" xmlns="http://www.w3.org/2000/svg">
<path d="M27.402 9.6296C27.5101 10.3813 26.8844 11 26.125 11C25.3656 11 24.7639 10.3784 24.613 9.6341C24.3465 8.31964 23.6989 7.10114 22.7364 6.13864C21.447 4.84933 19.6984 4.125 17.875 4.125C16.0516 4.125 14.303 4.84933 13.0136 6.13864C12.0511 7.10114 11.4035 8.31964 11.137 9.6341C10.9861 10.3784 10.3844 11 9.625 11C8.86561 11 8.23991 10.3813 8.34802 9.6296C8.64231 7.58353 9.59023 5.67297 11.0691 4.1941C12.8741 2.38906 15.3223 1.375 17.875 1.375C20.4277 1.375 22.8759 2.38906 24.6809 4.1941C26.1598 5.67297 27.1077 7.58353 27.402 9.6296Z" fill="url(#paint0_linear_16551_68161)"/>
<path d="M34.3749 20.625C34.36 20.6251 34.3451 20.6252 34.3302 20.6254C33.1733 20.6424 31.8739 20.3259 30.8615 19.7657C30.2534 19.4292 29.57 19.2518 28.8749 19.25C27.6918 19.2543 26.3606 18.9327 25.3172 18.3748C25.1262 18.2727 24.9265 18.1853 24.7197 18.1138C23.4409 17.6718 21.9999 16.704 21.9999 15.3509V11C21.9999 9.90598 21.5653 8.85677 20.7917 8.08318C20.0182 7.3096 18.9689 6.875 17.8749 6.875C16.7809 6.875 15.7317 7.3096 14.9581 8.08318C14.1845 8.85677 13.7499 9.90598 13.7499 11V22.5517C13.7499 24.1275 11.9858 25.06 10.6837 24.1725C9.98077 23.649 9.12633 23.369 8.24993 23.375C7.43177 23.373 6.6315 23.6143 5.95085 24.0683C5.2702 24.5223 4.73993 25.1684 4.42745 25.9245C4.11498 26.6807 4.03441 27.5127 4.196 28.3147C4.35759 29.1167 4.75403 29.8526 5.33493 30.4288L16.3349 40.4663C17.8922 41.8601 19.9099 42.629 21.9999 42.625H28.8749C31.4276 42.625 33.8758 41.6109 35.6808 39.8059C37.4859 38.0009 38.4999 35.5527 38.4999 33V24.75C38.4999 23.656 38.0653 22.6068 37.2917 21.8332C36.5182 21.0596 35.469 20.625 34.3749 20.625ZM35.7499 33C35.7499 34.8234 35.0256 36.5721 33.7363 37.8614C32.447 39.1507 30.6983 39.875 28.8749 39.875H21.9999C20.6101 39.8918 19.2615 39.4032 18.2049 38.5L7.27368 28.4625C7.01966 28.2064 6.87645 27.8607 6.87493 27.5C6.87493 27.2446 6.94604 26.9943 7.08028 26.7771C7.21453 26.5599 7.40661 26.3844 7.63501 26.2702C7.86341 26.156 8.11909 26.1076 8.37341 26.1306C8.62773 26.1535 8.87065 26.2468 9.07493 26.4C12.223 28.557 16.4999 26.3029 16.4999 22.4868V11C16.4999 10.6353 16.6448 10.2856 16.9027 10.0277C17.1605 9.76987 17.5103 9.625 17.8749 9.625C18.2396 9.625 18.5893 9.76987 18.8472 10.0277C19.1051 10.2856 19.2499 10.6353 19.2499 11V24.75C19.2499 25.5094 19.8655 26.125 20.6249 26.125C21.3843 26.125 21.9999 25.5094 21.9999 24.75V22C21.9999 21.6353 22.1448 21.2856 22.4027 21.0277C22.6605 20.7699 23.0103 20.625 23.3749 20.625C23.7396 20.625 24.0893 20.7699 24.3472 21.0277C24.6051 21.2856 24.7499 21.6353 24.7499 22V24.75C24.7499 25.5094 25.3655 26.125 26.1249 26.125C26.8843 26.125 27.4999 25.5094 27.4999 24.75V23.375C27.4999 23.0103 27.6448 22.6606 27.9027 22.4027C28.1605 22.1449 28.5103 22 28.8749 22C29.2396 22 29.5893 22.1449 29.8472 22.4027C30.1051 22.6606 30.2499 23.0103 30.2499 23.375V24.75C30.2499 25.5094 30.8655 26.125 31.6249 26.125C32.3843 26.125 32.9999 25.5094 32.9999 24.75C32.9999 24.3853 33.1448 24.0356 33.4027 23.7777C33.6605 23.5199 34.0103 23.375 34.3749 23.375C34.7396 23.375 35.0893 23.5199 35.3472 23.7777C35.6051 24.0356 35.7499 24.3853 35.7499 24.75V33Z" fill="url(#paint1_linear_16551_68161)"/>
<defs>
<linearGradient id="paint0_linear_16551_68161" x1="8.25" y1="6.1875" x2="27.5" y2="6.1875" gradientUnits="userSpaceOnUse">
<stop stop-color="#254AAD"/>
<stop offset="1" stop-color="#24ADAD"/>
</linearGradient>
<linearGradient id="paint1_linear_16551_68161" x1="4.11475" y1="24.75" x2="38.4999" y2="24.75" gradientUnits="userSpaceOnUse">
<stop stop-color="#254AAD"/>
<stop offset="1" stop-color="#24ADAD"/>
</linearGradient>
</defs>
</svg>
