<svg width="44" height="44" viewBox="0 0 44 44" fill="none" xmlns="http://www.w3.org/2000/svg">
<path d="M27.402 9.6296C27.5101 10.3813 26.8844 11 26.125 11C25.3656 11 24.7639 10.3784 24.613 9.6341C24.3465 8.31964 23.6989 7.10114 22.7364 6.13864C21.447 4.84933 19.6984 4.125 17.875 4.125C16.0516 4.125 14.303 4.84933 13.0136 6.13864C12.0511 7.10114 11.4035 8.31964 11.137 9.6341C10.9861 10.3784 10.3844 11 9.625 11C8.86561 11 8.23991 10.3813 8.34802 9.6296C8.64231 7.58353 9.59023 5.67297 11.0691 4.1941C12.8741 2.38906 15.3223 1.375 17.875 1.375C20.4277 1.375 22.8759 2.38906 24.6809 4.1941C26.1598 5.67297 27.1077 7.58353 27.402 9.6296Z" fill="#FFB703"/>
<path d="M34.3754 20.625C34.3605 20.6251 34.3456 20.6252 34.3307 20.6254C33.1738 20.6424 31.8744 20.3259 30.862 19.7657C30.2538 19.4292 29.5705 19.2518 28.8754 19.25C27.6923 19.2543 26.3611 18.9327 25.3177 18.3748C25.1267 18.2727 24.927 18.1853 24.7202 18.1138C23.4414 17.6718 22.0004 16.704 22.0004 15.3509V11C22.0004 9.90598 21.5658 8.85677 20.7922 8.08318C20.0186 7.3096 18.9694 6.875 17.8754 6.875C16.7814 6.875 15.7322 7.3096 14.9586 8.08318C14.185 8.85677 13.7504 9.90598 13.7504 11V22.5517C13.7504 24.1275 11.9862 25.06 10.6842 24.1725C9.98126 23.649 9.12682 23.369 8.25042 23.375C7.43226 23.373 6.63199 23.6143 5.95134 24.0683C5.27069 24.5223 4.74042 25.1684 4.42794 25.9245C4.11547 26.6807 4.0349 27.5127 4.19649 28.3147C4.35808 29.1167 4.75452 29.8526 5.33542 30.4288L16.3354 40.4663C17.8927 41.8601 19.9104 42.629 22.0004 42.625H28.8754C31.4281 42.625 33.8763 41.6109 35.6813 39.8059C37.4864 38.0009 38.5004 35.5527 38.5004 33V24.75C38.5004 23.656 38.0658 22.6068 37.2922 21.8332C36.5187 21.0596 35.4694 20.625 34.3754 20.625ZM35.7504 33C35.7504 34.8234 35.0261 36.5721 33.7368 37.8614C32.4475 39.1507 30.6988 39.875 28.8754 39.875H22.0004C20.6106 39.8918 19.2619 39.4032 18.2054 38.5L7.27417 28.4625C7.02014 28.2064 6.87694 27.8607 6.87542 27.5C6.87542 27.2446 6.94652 26.9943 7.08077 26.7771C7.21502 26.5599 7.4071 26.3844 7.6355 26.2702C7.86389 26.156 8.11958 26.1076 8.3739 26.1306C8.62822 26.1535 8.87113 26.2468 9.07542 26.4C12.2235 28.557 16.5004 26.3029 16.5004 22.4868V11C16.5004 10.6353 16.6453 10.2856 16.9031 10.0277C17.161 9.76987 17.5107 9.625 17.8754 9.625C18.2401 9.625 18.5898 9.76987 18.8477 10.0277C19.1056 10.2856 19.2504 10.6353 19.2504 11V24.75C19.2504 25.5094 19.866 26.125 20.6254 26.125C21.3848 26.125 22.0004 25.5094 22.0004 24.75V22C22.0004 21.6353 22.1453 21.2856 22.4031 21.0277C22.661 20.7699 23.0107 20.625 23.3754 20.625C23.7401 20.625 24.0898 20.7699 24.3477 21.0277C24.6056 21.2856 24.7504 21.6353 24.7504 22V24.75C24.7504 25.5094 25.366 26.125 26.1254 26.125C26.8848 26.125 27.5004 25.5094 27.5004 24.75V23.375C27.5004 23.0103 27.6453 22.6606 27.9031 22.4027C28.161 22.1449 28.5107 22 28.8754 22C29.2401 22 29.5898 22.1449 29.8477 22.4027C30.1056 22.6606 30.2504 23.0103 30.2504 23.375V24.75C30.2504 25.5094 30.866 26.125 31.6254 26.125C32.3848 26.125 33.0004 25.5094 33.0004 24.75C33.0004 24.3853 33.1453 24.0356 33.4031 23.7777C33.661 23.5199 34.0107 23.375 34.3754 23.375C34.7401 23.375 35.0898 23.5199 35.3477 23.7777C35.6056 24.0356 35.7504 24.3853 35.7504 24.75V33Z" fill="#FFB703"/>
</svg>
