<svg width="24" height="24" viewBox="0 0 24 24" fill="none" xmlns="http://www.w3.org/2000/svg">
<path d="M14.9465 5.25251C15.0055 5.66251 14.6642 6 14.25 6C13.8358 6 13.5076 5.66092 13.4253 5.25497C13.2799 4.53799 12.9266 3.87335 12.4017 3.34835C11.6984 2.64509 10.7446 2.25 9.75 2.25C8.75544 2.25 7.80161 2.64509 7.09835 3.34835C6.57335 3.87335 6.22009 4.53799 6.07474 5.25497C5.99244 5.66092 5.66421 6 5.25 6C4.83579 6 4.49449 5.66251 4.55346 5.25251C4.71399 4.13647 5.23103 3.09435 6.03769 2.28769C7.02226 1.30312 8.35761 0.75 9.75 0.75C11.1424 0.75 12.4777 1.30312 13.4623 2.28769C14.269 3.09435 14.786 4.13647 14.9465 5.25251Z" fill="#454545"/>
<path d="M18.7499 11.25C18.7418 11.25 18.7337 11.2501 18.7256 11.2502C18.0945 11.2595 17.3857 11.0869 16.8335 10.7813C16.5018 10.5977 16.1291 10.501 15.7499 10.5C15.1046 10.5023 14.3785 10.3269 13.8093 10.0226C13.7052 9.96693 13.5962 9.91925 13.4834 9.88026C12.7859 9.63919 11.9999 9.11126 11.9999 8.37324V6C11.9999 5.40326 11.7629 4.83097 11.3409 4.40901C10.919 3.98705 10.3467 3.75 9.74994 3.75C9.1532 3.75 8.58091 3.98705 8.15895 4.40901C7.73699 4.83097 7.49994 5.40326 7.49994 6V12.3009C7.49994 13.1604 6.53766 13.6691 5.82744 13.185C5.44403 12.8995 4.97798 12.7467 4.49994 12.75C4.05367 12.7489 3.61716 12.8805 3.2459 13.1282C2.87463 13.3758 2.58539 13.7282 2.41495 14.1407C2.24451 14.5531 2.20057 15.0069 2.28871 15.4444C2.37685 15.8819 2.59309 16.2832 2.90994 16.5975L8.90994 22.0725C9.75939 22.8328 10.8599 23.2522 11.9999 23.25H15.7499C17.1423 23.25 18.4777 22.6969 19.4623 21.7123C20.4468 20.7277 20.9999 19.3924 20.9999 18V13.5C20.9999 12.9033 20.7629 12.331 20.3409 11.909C19.919 11.4871 19.3467 11.25 18.7499 11.25ZM19.4999 18C19.4999 18.9946 19.1049 19.9484 18.4016 20.6517C17.6983 21.3549 16.7445 21.75 15.7499 21.75H11.9999C11.2418 21.7592 10.5062 21.4926 9.92994 21L3.96744 15.525C3.82888 15.3853 3.75077 15.1968 3.74994 15C3.74994 14.8607 3.78873 14.7242 3.86195 14.6057C3.93518 14.4872 4.03995 14.3915 4.16453 14.3292C4.28911 14.2669 4.42857 14.2405 4.56729 14.253C4.70601 14.2655 4.83851 14.3164 4.94994 14.4C6.66706 15.5766 8.99994 14.347 8.99994 12.2655V6C8.99994 5.80109 9.07896 5.61032 9.21961 5.46967C9.36026 5.32902 9.55103 5.25 9.74994 5.25C9.94885 5.25 10.1396 5.32902 10.2803 5.46967C10.4209 5.61032 10.4999 5.80109 10.4999 6V13.5C10.4999 13.9142 10.8357 14.25 11.2499 14.25C11.6642 14.25 11.9999 13.9142 11.9999 13.5V12C11.9999 11.8011 12.079 11.6103 12.2196 11.4697C12.3603 11.329 12.551 11.25 12.7499 11.25C12.9489 11.25 13.1396 11.329 13.2803 11.4697C13.4209 11.6103 13.4999 11.8011 13.4999 12V13.5C13.4999 13.9142 13.8357 14.25 14.2499 14.25C14.6642 14.25 14.9999 13.9142 14.9999 13.5V12.75C14.9999 12.5511 15.079 12.3603 15.2196 12.2197C15.3603 12.079 15.551 12 15.7499 12C15.9489 12 16.1396 12.079 16.2803 12.2197C16.4209 12.3603 16.4999 12.5511 16.4999 12.75V13.5C16.4999 13.9142 16.8357 14.25 17.2499 14.25C17.6642 14.25 17.9999 13.9142 17.9999 13.5C17.9999 13.3011 18.079 13.1103 18.2196 12.9697C18.3603 12.829 18.551 12.75 18.7499 12.75C18.9489 12.75 19.1396 12.829 19.2803 12.9697C19.4209 13.1103 19.4999 13.3011 19.4999 13.5V18Z" fill="#454545"/>
</svg>
